<?xml version="1.0" encoding="UTF-8"?>
<svg version="1.1" xmlns="http://www.w3.org/2000/svg" width="3750" height="3750">
<path d="M0 0 C3.47100033 2.8666505 6.74871283 5.888207 10 9 C10.67804687 9.60328125 11.35609375 10.2065625 12.0546875 10.828125 C32.6228329 29.82681353 42.84802287 61.61730383 44.08789062 88.93658447 C44.78791855 108.10153176 44.47117261 127.09641448 41 146 C40.83902832 146.91974609 40.67805664 147.83949219 40.51220703 148.78710938 C29.53821537 210.39326432 1.01009001 267.1025537 -29.62109375 321.02734375 C-33.26640259 327.45451435 -36.85456466 333.91290372 -40.4375 340.375 C-45.84354176 350.12401996 -51.27494983 359.8582745 -56.72802734 369.58105469 C-61.02703716 377.25086528 -65.29844109 384.93571343 -69.5625 392.625 C-74.17292729 400.93702291 -78.81231416 409.23130284 -83.5 417.5 C-90.16058507 429.24918971 -96.71643139 441.05558616 -103.26367188 452.86816406 C-105.818501 457.4763401 -108.37792858 462.08195692 -110.9375 466.6875 C-111.73830739 468.12889173 -112.53909182 469.57029621 -113.33984375 471.01171875 C-114.16162109 472.49091797 -114.16162109 472.49091797 -115 474 C-112.04308681 473.01436227 -109.74085835 471.78244331 -107.046875 470.2265625 C-50.19704826 437.69577739 12.00111914 417.28760431 77.0625 409.75 C77.77818146 409.66664398 78.49386292 409.58328796 79.23123169 409.49740601 C96.08669437 407.56420043 112.91349138 406.78826446 129.875 406.8125 C130.6709256 406.81310425 131.4668512 406.8137085 132.28689575 406.81433105 C233.18432658 407.01998059 328.18113878 442.09663051 447 526 C447.4959668 526.47018555 447.99193359 526.94037109 448.50292969 527.42480469 C462.80896403 540.99578267 474.36754639 556.81956452 484 574 C486.32143539 571.07232989 488.24334049 567.97825193 490.15722656 564.77319336 C536.4803787 487.81249532 641.73028108 441.88210667 724.90625 420.69140625 C745.27733885 415.72348535 765.85283231 411.97906943 786.6875 409.625 C787.39059296 409.54537018 788.09368591 409.46574036 788.81808472 409.38369751 C805.12921904 407.57231007 821.4043031 406.78918585 837.8125 406.8125 C839.01013474 406.81340637 839.01013474 406.81340637 840.23196411 406.81433105 C925.51675626 406.98772785 1011.04231888 430.6748023 1084 475 C1077.0262516 461.91877837 1070.00870989 448.87942826 1062.60571289 436.03491211 C1056.59013191 425.58534377 1050.76863157 415.0283377 1044.92773438 404.48046875 C1041.76840001 398.77638178 1038.60344172 393.07542175 1035.4375 387.375 C1034.81641357 386.25657715 1034.19532715 385.1381543 1033.55541992 383.98583984 C1028.81363308 375.45223154 1024.04690681 366.93278976 1019.27148438 358.41796875 C1014.33460905 349.61044989 1009.43554239 340.78219737 1004.53955078 331.9519043 C1001.05092794 325.66757941 997.53643117 319.39920717 993.98632812 313.14941406 C966.42603777 264.62659984 941.63825547 213.95623686 930 159 C929.70706055 157.62231445 929.70706055 157.62231445 929.40820312 156.21679688 C920.28700078 112.2691856 920.06051934 63.78333517 944.93847656 24.72338867 C958.00821763 5.25420205 975.55055795 -6.64355203 998 -13 C998.69754395 -13.20044922 999.39508789 -13.40089844 1000.11376953 -13.60742188 C1020.85714686 -19.29820675 1046.20785235 -19.57013613 1067 -14 C1067.76070801 -13.80664062 1068.52141602 -13.61328125 1069.30517578 -13.4140625 C1103.62140849 -4.54589947 1134.62909384 14.81741758 1160.5234375 38.734375 C1162.54033553 40.57948676 1164.58697835 42.3641413 1166.66015625 44.14453125 C1171.67846644 48.52442429 1176.3649578 53.21871797 1181.0625 57.9375 C1182.35124023 59.22043945 1182.35124023 59.22043945 1183.66601562 60.52929688 C1188.65309469 65.52399562 1193.42255364 70.62884491 1198 76 C1198.845625 76.96421875 1199.69125 77.9284375 1200.5625 78.921875 C1208.87811183 88.57011693 1216.46445355 98.7362495 1224 109 C1224.4945166 109.67272949 1224.9890332 110.34545898 1225.49853516 111.03857422 C1230.22292907 117.49045671 1234.76446025 124.04638081 1239.125 130.75 C1239.51606934 131.34731934 1239.90713867 131.94463867 1240.31005859 132.56005859 C1243 136.75842413 1243 136.75842413 1243 139 C1243.87398437 138.39414062 1244.74796875 137.78828125 1245.6484375 137.1640625 C1274.63114393 117.31442747 1307.02912656 102.55537021 1343 109.1875 C1358.25229029 112.76745897 1370.64553199 118.90452443 1381.41796875 130.375 C1383.40951017 132.39968357 1385.38574652 134.21533448 1387.54003906 136.05102539 C1392.55783499 140.42149789 1397.24322467 145.09957214 1401.94140625 149.80859375 C1402.86791489 150.73414566 1403.79442352 151.65969757 1404.74900818 152.61329651 C1406.69782361 154.56064855 1408.64484737 156.50976913 1410.59057617 158.46020508 C1413.06363861 160.93896395 1415.54116533 163.41320431 1418.02006626 165.8861227 C1420.41296201 168.27450145 1422.80200318 170.6667208 1425.19140625 173.05859375 C1426.07075333 173.9359166 1426.9501004 174.81323944 1427.85609436 175.71714783 C1432.22270692 180.10025358 1436.45863936 184.53617828 1440.47865295 189.24053955 C1443.17506726 192.35898274 1446.03954899 195.32102754 1448.875 198.3125 C1453.7652533 203.50758684 1458.40429718 208.81352758 1462.859375 214.390625 C1465.15120465 217.18431516 1467.55231812 219.84208778 1470 222.5 C1474.89379479 227.82980108 1479.46020517 233.36835578 1484 239 C1485.00934094 240.23005016 1486.01982598 241.4591621 1487.03125 242.6875 C1494.06281667 251.24536393 1500.84312668 259.95173323 1507.42138672 268.86230469 C1509.09038043 271.12238959 1510.76572549 273.37768199 1512.44140625 275.6328125 C1533.78388853 304.409127 1553.84903844 334.09991001 1572 365 C1572.51868652 365.87881836 1573.03737305 366.75763672 1573.57177734 367.66308594 C1608.61294791 427.16846097 1636.77304355 489.65441951 1659 555 C1659.23182983 555.67875183 1659.46365967 556.35750366 1659.70251465 557.05682373 C1686.84172295 636.58428598 1702.96428277 720.10473455 1713.5625 868.875 C1713.58334656 869.66914307 1713.60419312 870.46328613 1713.62567139 871.28149414 C1714.01865437 886.52332224 1714.2022447 901.75310608 1714 917 C1713.99139954 917.66163147 1713.98279907 918.32326294 1713.97393799 919.00494385 C1712.93906258 994.91451426 1704.68774476 1070.53762645 1690 1145 C1689.8287561 1145.86824402 1689.65751221 1146.73648804 1689.4810791 1147.63104248 C1681.89584501 1185.88805257 1672.43405658 1223.72189514 1660.33480835 1260.80757141 C1658.23221354 1267.25569376 1656.18318487 1273.7201388 1654.140625 1280.1875 C1639.11134672 1327.71215063 1622.13850916 1373.83563568 1601 1419 C1600.2263208 1420.65902344 1600.2263208 1420.65902344 1599.43701172 1422.3515625 C1593.32063307 1435.43229534 1586.89444797 1448.31225191 1580 1461 C1579.4642334 1461.98919434 1578.9284668 1462.97838867 1578.37646484 1463.99755859 C1560.18084716 1497.4830105 1540.15411127 1529.98424423 1518 1561 C1517.13212943 1562.22607928 1516.26489065 1563.45260614 1515.3984375 1564.6796875 C1505.09904338 1579.2331792 1494.544105 1593.57612887 1483.29150391 1607.40869141 C1481.45030142 1609.67730346 1479.63199747 1611.96396471 1477.8125 1614.25 C1470.72356191 1623.10025536 1463.49761366 1631.8147465 1456.09375 1640.40234375 C1454.08054875 1642.7378338 1452.08071839 1645.08356402 1450.09375 1647.44140625 C1443.00616152 1655.83013834 1435.5899849 1663.85891631 1428.03198242 1671.82446289 C1426.63335269 1673.32190246 1425.2515368 1674.83516645 1423.8840332 1676.36108398 C1414.75754393 1686.51782072 1405.04671858 1696.10545996 1395.38354492 1705.74682617 C1392.8152059 1708.30943823 1390.25142692 1710.87655832 1387.68893147 1713.44501209 C1385.68742083 1715.45016072 1383.68350461 1717.45289171 1381.67888451 1719.45493126 C1380.27964171 1720.8531996 1378.88238199 1722.25345152 1377.48518372 1723.65376282 C1373.03430477 1728.08841896 1368.53740337 1732.40047453 1363.75932312 1736.48222351 C1360.582545 1739.22284522 1357.55275295 1742.12293073 1354.5 1745 C1349.4139614 1749.76656537 1344.30273137 1754.47422561 1339 1759 C1337.95548748 1759.8981565 1336.91124263 1760.79662434 1335.8671875 1761.6953125 C1332.84969199 1764.29036709 1329.82587898 1766.87793095 1326.79931641 1769.46240234 C1325.6391774 1770.45379386 1324.47992905 1771.44622904 1323.32177734 1772.43994141 C1316.72144232 1778.10276269 1310.02699039 1783.60346305 1303.16235352 1788.94335938 C1299.35540491 1791.91143498 1295.63003258 1794.95299888 1291.9375 1798.0625 C1286.41237614 1802.69577316 1280.74426339 1807.11562641 1275.00244141 1811.47460938 C1272.6974146 1813.2304991 1270.40145084 1814.99792588 1268.10546875 1816.765625 C1258.6028561 1824.06647703 1249.02614522 1831.20627136 1239.1953125 1838.05859375 C1234.64949543 1841.22991909 1230.17018981 1844.49037316 1225.6875 1847.75 C1219.48321812 1852.2472214 1213.22064943 1856.61319042 1206.80761719 1860.80957031 C1203.70971733 1862.84973235 1200.63132032 1864.91908577 1197.54882812 1866.98242188 C1187.42743514 1873.75169041 1177.27159262 1880.46059185 1167 1887 C1166.15759766 1887.53641113 1165.31519531 1888.07282227 1164.44726562 1888.62548828 C1122.86533455 1915.02208132 1079.9916861 1939.21007631 1036.22265625 1961.77734375 C1032.57119431 1963.66212875 1028.92922634 1965.56056606 1025.30859375 1967.50390625 C999.14995082 1981.54348916 972.13774195 1993.98114389 945.04125977 2006.08648682 C943.01373068 2006.99385519 940.98803979 2007.90520469 938.96289062 2008.81787109 C851.12488799 2048.38145019 759.82898 2081.00146812 550.4375 2136.9375 C549.43796295 2137.15740601 548.4384259 2137.37731201 547.40859985 2137.60388184 C544.60710131 2138.21682359 541.8025673 2138.81265576 538.99609375 2139.40234375 C537.77510483 2139.67143806 537.77510483 2139.67143806 536.52944946 2139.94596863 C526.23537884 2142.04917756 516.54183796 2138.85501166 507.59375 2133.58203125 C501.59745873 2129.28084539 496.29627742 2124.13933525 494 2117 C493.06185539 2108.67669379 493.8576276 2101.33520385 498 2094 C498.58652344 2092.89914063 499.17304687 2091.79828125 499.77734375 2090.6640625 C503.89131958 2085.05361571 510.75221021 2082.63990757 516.875 2079.75 C518.10367557 2079.15401278 519.3315461 2078.55636295 520.55859375 2077.95703125 C525.53665742 2075.53570781 530.53960064 2073.16702614 535.5411377 2070.79467773 C551.1299669 2063.39574765 566.58549399 2055.75498297 582 2048 C595.38605342 2041.26552429 608.78731759 2034.58681064 622.32373047 2028.15917969 C633.96889948 2022.61348032 645.47826765 2016.79654243 657 2011 C670.38605342 2004.26552429 683.78731759 1997.58681064 697.32373047 1991.15917969 C708.96889948 1985.61348032 720.47826765 1979.79654243 732 1974 C744.45119623 1967.7358476 756.90084099 1961.48261398 769.4921875 1955.50390625 C782.1308425 1949.50270766 794.62694399 1943.2250513 807.125 1936.9375 C811.54300752 1934.71492226 815.96209318 1932.49452313 820.3828125 1930.27734375 C821.44870102 1929.742267 822.51458954 1929.20719025 823.61277771 1928.65589905 C831.39315577 1924.76509439 839.22513213 1920.99396839 847.13076782 1917.36387634 C854.66137276 1913.85232032 861.31363803 1909.39861708 867.98583984 1904.47705078 C870.11491182 1902.91573133 872.26711347 1901.39119661 874.42578125 1899.87109375 C887.8010113 1890.41105417 900.59338447 1880.3426407 912.61328125 1869.203125 C914.7688899 1867.2133324 916.96225088 1865.28604566 919.1875 1863.375 C926.97028467 1856.57297275 933.60926716 1849.11677693 940 1841 C940.74378906 1840.07316406 941.48757813 1839.14632812 942.25390625 1838.19140625 C955.36966973 1821.38041897 967.11638767 1800.05139413 965 1778 C963.06988819 1762.73457025 957.39827567 1750.46281578 947 1739 C946.28457031 1738.19175781 945.56914062 1737.38351562 944.83203125 1736.55078125 C933.48349132 1724.44187013 912.47658398 1708.19768978 895.24316406 1707.56103516 C894.09850174 1707.51386353 892.95383942 1707.46669189 891.77449036 1707.41809082 C890.53406479 1707.37551147 889.29363922 1707.33293213 888.015625 1707.2890625 C886.01841464 1707.20822709 884.02120498 1707.12737161 882.02402973 1707.04567337 C879.89753811 1706.95982229 877.77092578 1706.87777292 875.64425659 1706.79644775 C868.22633447 1706.51029227 860.81030891 1706.18046116 853.39453125 1705.84375 C852.64978106 1705.80999393 851.90503086 1705.77623787 851.13771248 1705.74145889 C762.96491109 1701.70727098 672.40470208 1689.26405745 493.75390625 1591.95703125 C490.6265636 1588.46750192 487.787789 1584.76351515 485 1581 C481.92162129 1584.05979695 478.87690643 1587.1493264 475.84765625 1590.2578125 C467.25606915 1599.02670346 458.72902184 1607.50603184 448.77197266 1614.71533203 C446.88861929 1616.08075024 445.02922357 1617.47573384 443.16796875 1618.87109375 C372.18351187 1671.29460758 277.08489763 1690.08802746 171 1702 C170.30090515 1702.0681189 169.6018103 1702.13623779 168.88153076 1702.2064209 C163.86130074 1702.69276437 158.83863283 1703.1416153 153.8125 1703.5625 C153.07484406 1703.62486847 152.33718811 1703.68723694 151.57717896 1703.75149536 C140.71829122 1704.64551793 129.86156253 1705.1373466 118.97294044 1705.46779442 C116.80460084 1705.53540254 114.63651928 1705.60849413 112.46842957 1705.68367004 C111.74666944 1705.70866546 111.02490931 1705.73366087 110.28127766 1705.75941372 C108.8155439 1705.81035934 107.34981957 1705.86157708 105.88410473 1705.913064 C102.27002324 1706.0369143 98.65701285 1706.1433688 95.04141235 1706.21096802 C78.00843955 1706.53501023 63.73479331 1707.74404528 49 1717 C47.83072629 1717.70168282 46.66107251 1718.40273283 45.4909668 1719.10302734 C26.92396793 1730.58264893 11.35895034 1746.50367962 5.0625 1767.8125 C0.64717625 1788.56452161 6.88348245 1809.0972932 18.09399414 1826.67822266 C31.45891009 1846.94617844 48.76992669 1865.20977046 68 1880 C69.1236768 1880.9095786 70.24458421 1881.82258496 71.36328125 1882.73828125 C78.08280431 1888.22410312 84.92649604 1893.5164069 91.9375 1898.625 C92.60338135 1899.11452148 93.2692627 1899.60404297 93.95532227 1900.10839844 C108.97163289 1910.9296257 124.99694827 1919.26711505 141.5625 1927.4375 C143.704128 1928.50254777 145.84540572 1929.5683002 147.98632812 1930.63476562 C158.10617786 1935.66528552 168.2583275 1940.62043045 178.46484375 1945.47265625 C192.1839024 1951.99683738 205.7414234 1958.83894672 219.31152344 1965.66601562 C230.66302278 1971.37362327 242.02221928 1977.04989005 253.5 1982.5 C267.20997917 1989.01004718 280.75417958 1995.84536431 294.31152344 2002.66601562 C305.66302278 2008.37362327 317.02221928 2014.04989005 328.5 2019.5 C342.20997917 2026.01004718 355.75417958 2032.84536431 369.31152344 2039.66601562 C381.59256759 2045.84100444 393.8968465 2051.94742962 406.31027222 2057.85221863 C416.85828375 2062.87310928 427.3547634 2067.99582799 437.82275391 2073.18139648 C440.05371891 2074.28335399 442.28752834 2075.37956867 444.52392578 2076.47045898 C447.81701571 2078.07759134 451.1006411 2079.70273956 454.3828125 2081.33203125 C455.37854279 2081.81340042 456.37427307 2082.29476959 457.400177 2082.79072571 C464.58584152 2086.39402507 469.07774904 2090.0169744 472.25 2097.625 C472.56453125 2098.35976562 472.8790625 2099.09453125 473.203125 2099.8515625 C476.09028731 2107.63557852 475.83215914 2114.97940921 472.4375 2122.58203125 C467.31767639 2131.19390847 458.18707235 2135.78401258 449 2139 C448.34 2139.23928223 447.68 2139.47856445 447 2139.72509766 C438.20437654 2142.23516944 429.54082206 2139.56933276 420.875 2137.625 C419.00836966 2137.21924682 417.14166799 2136.81382165 415.27490234 2136.40869141 C353.04820897 2122.72988842 291.61677769 2105.56553853 231 2086 C230.10059692 2085.7099408 229.20119385 2085.41988159 228.27453613 2085.12103271 C144.91223032 2058.19242197 63.11732662 2025.7007779 -39.85632324 1976.05718994 C-42.0003828 1974.99981122 -44.14520121 1973.9439825 -46.29003906 1972.88818359 C-62.12037027 1965.08774696 -77.79577714 1957.08487994 -93.23046875 1948.52148438 C-97.31928742 1946.27522927 -101.43960122 1944.08901924 -105.55688477 1941.89550781 C-118.17590711 1935.16214382 -130.58508331 1928.13022539 -142.89013672 1920.84033203 C-146.14231822 1918.91577997 -149.40081769 1917.00224686 -152.66015625 1915.08984375 C-216.99207924 1877.26352047 -278.40031473 1834.6880428 -336.19580078 1787.47216797 C-337.78273046 1786.17728489 -339.37348737 1784.88709522 -340.96484375 1783.59765625 C-347.20018523 1778.53430259 -353.31522114 1773.34169436 -359.3984375 1768.09765625 C-361.74782976 1766.07255881 -364.1067514 1764.0597527 -366.4765625 1762.05859375 C-374.02882895 1755.6668209 -381.3187725 1749.04646728 -388.51953125 1742.26171875 C-391.4512535 1739.50221625 -394.4294441 1736.80138664 -397.4375 1734.125 C-401.03659855 1730.91258146 -404.47152898 1727.58942848 -407.8203125 1724.1171875 C-409.63197244 1722.3574748 -411.47397949 1720.73366304 -413.39453125 1719.09765625 C-419.11086528 1714.12922908 -424.41142328 1708.73783613 -429.75463867 1703.37573242 C-431.55862085 1701.56639067 -433.36788665 1699.76245681 -435.17773438 1697.95898438 C-440.50068168 1692.63878468 -445.74938663 1687.31871686 -450.63256836 1681.58569336 C-452.4804927 1679.44281376 -454.4698946 1677.46950524 -456.5 1675.5 C-459.84933729 1672.19013302 -462.99925956 1668.79253051 -466.0625 1665.21875 C-467.98602777 1663.01600045 -469.96105114 1660.866863 -471.95019531 1658.72338867 C-476.77940551 1653.51767219 -481.36191603 1648.18671038 -485.81640625 1642.65234375 C-487.99397068 1640.00732363 -490.25318763 1637.46787475 -492.5625 1634.9375 C-496.10877889 1631.03720359 -499.44569741 1627.03076137 -502.70703125 1622.890625 C-505.02203073 1619.97222702 -507.37499338 1617.08818437 -509.73510742 1614.20629883 C-515.2226912 1607.49732826 -520.58772385 1600.72764584 -525.72021484 1593.74072266 C-527.21105734 1591.71292658 -528.70904384 1589.69049216 -530.20703125 1587.66796875 C-533.2313785 1583.5809901 -536.24144993 1579.4837068 -539.24755859 1575.38330078 C-540.8405637 1573.21683159 -542.44416166 1571.05872108 -544.05078125 1568.90234375 C-596.85508727 1497.50630637 -637.6578526 1416.76192292 -684.72900391 1282.9831543 C-687.1902269 1274.80499363 -689.75462406 1266.68016848 -692.4921875 1258.58984375 C-695.91541833 1248.43541882 -698.95084407 1238.20049954 -701.8125 1227.875 C-702.06601227 1226.9633609 -702.31952454 1226.0517218 -702.58071899 1225.11245728 C-723.86683058 1148.28750992 -736.55327478 1069.27436262 -742.3125 989.8125 C-742.39390228 988.69184143 -742.47530457 987.57118286 -742.55917358 986.41656494 C-744.53480263 958.79141208 -745.208168 931.24812331 -745.1875 903.5625 C-745.18723312 902.75938259 -745.18696625 901.95626518 -745.18669128 901.12881088 C-745.17596882 875.37125843 -744.88341016 849.69965757 -743 824 C-742.90525391 822.67678741 -742.90525391 822.67678741 -742.80859375 821.32684326 C-738.51127489 761.60280051 -729.88592253 702.2629563 -716 644 C-715.8081311 643.19469849 -715.61626221 642.38939697 -715.4185791 641.55969238 C-703.20765372 590.55056969 -687.28839021 540.38255168 -667 492 C-666.49678223 490.79827148 -665.99356445 489.59654297 -665.47509766 488.35839844 C-635.33155452 416.78529602 -597.61749005 348.83860487 -551.60791016 286.19335938 C-549.91160883 283.87942511 -548.22694319 281.55729263 -546.54296875 279.234375 C-539.96868259 270.19836373 -533.19218387 261.3928902 -526.0859375 252.76953125 C-523.13720325 249.18787554 -520.28162829 245.53986538 -517.4375 241.875 C-512.32877665 235.32053387 -506.95498421 229.01925182 -501.50732422 222.74560547 C-500.01564678 221.01812025 -498.53879474 219.27909785 -497.06640625 217.53515625 C-491.18061818 210.57673371 -485.1192465 203.82800508 -478.86865234 197.19482422 C-475.93083781 194.07642315 -473.03516991 190.94451045 -470.25 187.6875 C-466.91737872 183.80785756 -463.28780679 180.25391714 -459.625 176.6875 C-457.60442025 174.61881121 -455.71962585 172.53837975 -453.83984375 170.34765625 C-449.32210859 165.13826891 -444.44666962 160.3008416 -439.5625 155.4375 C-438.65951172 154.53064453 -437.75652344 153.62378906 -436.82617188 152.68945312 C-432.25095168 148.12085888 -427.61626146 143.70519986 -422.70922852 139.49536133 C-420.41263797 137.48613164 -418.301418 135.32406706 -416.1875 133.125 C-399.2455665 116.15731888 -380.65185109 107.76827065 -356.625 107.5 C-326.47201162 107.80771184 -300.19716081 121.00049988 -276 138 C-273.23911477 134.63707151 -270.75041822 131.20649263 -268.375 127.5625 C-253.27875996 104.75040393 -236.46741906 81.82435027 -216.7734375 62.7734375 C-215.00693361 61.00693361 -213.41513526 59.16534458 -211.8125 57.25 C-206.70218578 51.33218691 -200.81350305 46.20763321 -195 41 C-194.12529053 40.20819336 -194.12529053 40.20819336 -193.23291016 39.40039062 C-167.51616001 16.17965719 -136.75010062 -3.96621573 -103 -13 C-102.24734863 -13.20737793 -101.49469727 -13.41475586 -100.71923828 -13.62841797 C-69.62363199 -21.83537436 -26.55082454 -20.06693334 0 0 Z M484 688 C482.6760906 690.02588927 481.39512161 692.06568713 480.125 694.125 C475.96854072 700.73133227 471.40532804 706.88505105 466.47265625 712.9296875 C464.08064254 715.80531244 464.08064254 715.80531244 462.49609375 718.2578125 C455.66522857 728.15078966 437.3321441 729.53916205 426.26318359 731.59765625 C372.78446654 741.10498373 314.01980904 732.08623696 265.53125 707.80859375 C264.53798706 707.3146814 264.53798706 707.3146814 263.5246582 706.81079102 C261.85949702 705.96260991 260.21540267 705.07338113 258.57421875 704.1796875 C249.17906534 701.07877348 238.11061887 703.24534887 228.4375 704.1875 C227.76903046 704.25246674 227.10056091 704.31743347 226.41183472 704.3843689 C212.44563356 705.76618604 198.72060856 708.03166036 185 711 C184.00516602 711.21495117 183.01033203 711.42990234 181.98535156 711.65136719 C140.01453512 720.95812098 99.79817173 737.57347953 65 763 C64.42314453 763.41991211 63.84628906 763.83982422 63.25195312 764.27246094 C55.01547411 770.31537595 47.35117512 776.91006499 40 784 C39.30680664 784.66596191 38.61361328 785.33192383 37.89941406 786.01806641 C28.14073487 795.44248666 18.83145197 804.89818161 11 816 C10.45923828 816.76650879 9.91847656 817.53301758 9.36132812 818.32275391 C-30.52561548 875.45179604 -44.07857114 942.34345366 -46 1011 C-46.02336426 1011.7636084 -46.04672852 1012.5272168 -46.07080078 1013.31396484 C-47.95729109 1083.65310335 -33.94606462 1163.81054132 14 1218 C14.45874512 1218.51900879 14.91749023 1219.03801758 15.39013672 1219.57275391 C31.41733384 1237.59740586 49.76133335 1251.2605136 71.26171875 1262.171875 C78.91712283 1266.07663918 85.56782786 1269.96829831 92.1015625 1275.62890625 C137.85220582 1313.05564546 201.1952962 1333.5144166 258 1347 C259.09704254 1347.26073303 259.09704254 1347.26073303 260.21624756 1347.5267334 C281.60455707 1352.58190897 303.08488001 1356.51751431 324.81640625 1359.7734375 C325.53760651 1359.8825647 326.25880676 1359.99169189 327.00186157 1360.10412598 C330.04642087 1360.56389157 333.09046079 1361.01195229 336.14306641 1361.4152832 C345.17811969 1362.70325888 353.63274479 1365.52557413 362.25 1368.4375 C363.03935944 1368.70188873 363.82871887 1368.96627747 364.64199829 1369.23867798 C378.56959581 1373.92375253 391.85954315 1379.39367142 405 1386 C405.76183594 1386.37157227 406.52367187 1386.74314453 407.30859375 1387.12597656 C424.02550893 1395.2832948 440.0723971 1405.64823237 454 1418 C454.86753906 1418.75925781 455.73507812 1419.51851562 456.62890625 1420.30078125 C459.11449419 1422.50484209 461.56448622 1424.74085101 464 1427 C464.60328125 1427.54914062 465.2065625 1428.09828125 465.828125 1428.6640625 C470.22702638 1432.83685213 473.83695246 1437.53099846 477.44921875 1442.38183594 C479.77753114 1445.49558063 482.17290356 1448.3288813 485 1451 C485.47308594 1450.32195313 485.94617187 1449.64390625 486.43359375 1448.9453125 C492.59397979 1440.27513955 499.38253065 1432.42214963 507 1425 C507.50015625 1424.45472656 508.0003125 1423.90945313 508.515625 1423.34765625 C519.4330474 1411.74196156 533.35914743 1403.04832891 547 1395 C547.68755371 1394.59040039 548.37510742 1394.18080078 549.08349609 1393.75878906 C565.56726655 1384.01232705 583.03000652 1376.66934912 601 1370.125 C601.97718994 1369.76784912 602.95437988 1369.41069824 603.96118164 1369.04272461 C617.15057553 1364.35819669 630.17657333 1361.46377639 643.99505615 1359.59262085 C723.78154082 1348.67959652 813.42116807 1325.53391981 879.2734375 1273.375 C885.67935868 1268.17308091 891.85035289 1264.45113465 899.40625 1261.10864258 C911.62390097 1255.60713525 922.89048459 1247.75571943 933 1239 C933.79277344 1238.31679687 934.58554688 1237.63359375 935.40234375 1236.9296875 C946.46651246 1227.17643925 956.41994651 1217.00722348 965 1205 C965.39896484 1204.45069824 965.79792969 1203.90139648 966.20898438 1203.33544922 C996.22841705 1161.67804808 1008.52536106 1109.40223456 1013 1059 C1013.09498779 1058.00411865 1013.18997559 1057.0082373 1013.2878418 1055.98217773 C1014.26960419 1044.40087216 1014.20027542 1032.80242697 1014.1875 1021.1875 C1014.18656342 1020.0903064 1014.18562683 1018.99311279 1014.18466187 1017.8626709 C1014.15552857 1002.13643082 1013.92448897 986.62463251 1012 971 C1011.83650199 969.60634987 1011.67362205 968.21262714 1011.51123047 966.81884766 C1009.17074551 946.92606338 1006.22038283 927.37364513 1001 908 C1000.76168457 907.11119141 1000.52336914 906.22238281 1000.27783203 905.30664062 C989.69126613 866.56431434 971.53219676 831.19973583 945 801 C944.23816406 800.12601563 943.47632812 799.25203125 942.69140625 798.3515625 C933.848795 788.35830843 924.51438861 779.22242379 914 771 C912.48792969 769.79730469 912.48792969 769.79730469 910.9453125 768.5703125 C861.92633912 729.88068868 800.56177959 710.19691465 739 704 C737.69675781 703.86851562 736.39351562 703.73703125 735.05078125 703.6015625 C732.032805 703.33726636 729.02490912 703.16077706 726 703 C725.0920166 702.9275708 724.1840332 702.8551416 723.24853516 702.78051758 C714.8201516 702.37615844 709.08225484 704.66291933 701.625 708.375 C699.24781823 709.49041751 696.86907614 710.59727119 694.48046875 711.6875 C693.86959915 711.96685394 693.25872955 712.24620789 692.62934875 712.5340271 C661.70482715 726.46992365 626.85749964 733.91220885 593 735 C592.32646484 735.02191406 591.65292969 735.04382812 590.95898438 735.06640625 C568.93131516 735.6811319 547.4236444 733.0444652 526 728 C525.2167334 727.82662109 524.4334668 727.65324219 523.62646484 727.47460938 C512.67306181 724.97239853 506.52686895 719.78942534 500 711 C499.47712402 710.30100586 498.95424805 709.60201172 498.41552734 708.88183594 C488.43467581 695.40311881 488.43467581 695.40311881 485 688 C484.67 688 484.34 688 484 688 Z " fill="#1E71B6" transform="translate(1393,789)"/>
<path d="M0 0 C2.47831455 2.26985818 4.57840341 4.62829967 6.6953125 7.234375 C7.89913871 8.32550258 9.12817375 9.38957729 10.3828125 10.421875 C20.15158655 18.95978352 29.50676658 27.95410995 38.6953125 37.109375 C39.38874756 37.79821777 40.08218262 38.48706055 40.79663086 39.19677734 C44.69831087 43.11022499 48.41117572 47.13049082 52.02050781 51.31445312 C54.62473921 54.2998286 57.35235019 57.16546064 60.0703125 60.046875 C64.71721026 65.01276203 69.13826698 70.08688408 73.390625 75.3984375 C75.57415578 78.08529063 77.81419504 80.70784507 80.08276367 83.32250977 C85.69591386 89.79323684 91.04059643 96.41898699 96.19775391 103.25976562 C97.94866209 105.5684297 99.71806906 107.86235549 101.48828125 110.15625 C102.86990131 111.9530407 104.25141141 113.74991595 105.6328125 115.546875 C106.58075684 116.77192749 106.58075684 116.77192749 107.54785156 118.02172852 C126.49131905 142.75828329 143.75049736 169.4885614 159.6953125 196.234375 C160.53666748 197.64541504 160.53666748 197.64541504 161.39501953 199.08496094 C169.26182054 212.33134523 176.82196588 225.72663544 184.11181641 239.29833984 C185.77631168 242.38455942 187.45953077 245.4600888 189.14453125 248.53515625 C220.60389282 306.22757975 247.23610564 367.3232553 268.41015625 429.52734375 C269.76708083 433.44139065 271.28313833 437.26005603 272.8671875 441.0859375 C274.06819056 444.20174733 274.95447053 447.39368222 275.87353516 450.60180664 C276.65471609 453.10432417 277.57006362 455.4758369 278.578125 457.89453125 C280.67737133 463.07938211 282.41175719 468.33219476 284.0703125 473.671875 C284.68224518 475.62241042 285.29422512 477.57293101 285.90625 479.5234375 C286.20756836 480.48797852 286.50888672 481.45251953 286.81933594 482.44628906 C287.61250758 484.97082088 288.41928785 487.49028779 289.234375 490.0078125 C292.80686211 501.07979546 295.98926032 512.24211511 299.08203125 523.45703125 C300.3274168 527.95868985 301.64253664 532.43445934 302.99633789 536.90454102 C304.06914583 540.48044257 305.07408499 544.0740128 306.0703125 547.671875 C306.25335937 548.32607422 306.43640625 548.98027344 306.625 549.65429688 C311.16318876 566.00073336 315.32417449 582.45085587 319.3828125 598.921875 C319.63932587 599.96287354 319.89583923 601.00387207 320.16012573 602.07641602 C324.16609884 618.40021921 327.84811326 634.77593478 331.2578125 651.234375 C331.46336761 652.22472748 331.66892273 653.21507996 331.88070679 654.23544312 C334.10554714 664.99702003 336.20245221 675.76377787 337.99975586 686.60546875 C340.96483808 702.07510097 353.45091794 714.24868642 365.796875 723.578125 C368.38134703 725.25838781 370.97190992 726.79257363 373.6953125 728.234375 C374.33984375 728.59015625 374.984375 728.9459375 375.6484375 729.3125 C380.65830236 731.79486547 385.46089692 732.09323111 390.76953125 730.68359375 C397.1104807 728.13513597 399.89399829 723.24738704 402.6953125 717.234375 C405.14441296 710.77333938 405.03875808 704.88584868 405.0078125 698.046875 C405.00044067 696.11606079 405.00044067 696.11606079 404.99291992 694.14624023 C404.62838801 663.59472725 399.00935657 633.02803789 391.50878906 603.48583984 C390.63362111 599.98779459 389.79736705 596.48201148 388.96875 592.97265625 C385.57349683 578.60732976 381.9140464 564.37920739 377.6953125 550.234375 C377.21966437 548.61599932 376.74440402 546.99750961 376.26953125 545.37890625 C370.55600688 526.01188168 364.25528534 506.83012401 357.8828125 487.671875 C357.64615875 486.95923492 357.409505 486.24659485 357.16567993 485.51235962 C354.79267013 478.37289191 352.39134327 471.259914 349.6953125 464.234375 C348.87747682 461.96545784 348.06480121 459.69467272 347.2578125 457.421875 C344.13177334 448.64849723 340.95457741 439.89661359 337.6953125 431.171875 C337.3396521 430.21692139 337.3396521 430.21692139 336.97680664 429.24267578 C335.32526504 424.8359478 333.59355782 420.46524758 331.83837891 416.09887695 C330.53817357 412.84058793 329.26224584 409.57332545 327.98828125 406.3046875 C322.46499709 392.14699511 316.86399455 378.02173504 311.05874634 363.97698975 C310.45994657 362.52669477 309.86341569 361.07546003 309.2696228 359.62310791 C299.07708703 334.72830582 286.56735897 310.81457836 274.53125 286.77587891 C272.47356212 282.66622661 270.41953056 278.55475906 268.36645222 274.44280243 C266.36089898 270.42700573 264.35298142 266.41239503 262.34375 262.3984375 C261.95642511 261.62463242 261.56910023 260.85082733 261.17003822 260.05357361 C256.84480611 251.41989726 252.47166318 242.82081599 247.91796875 234.3046875 C244.11214781 227.18081548 240.80652982 219.97051648 237.7578125 212.484375 C237.30341797 211.38867188 236.84902344 210.29296875 236.38085938 209.1640625 C235.51775789 207.08253891 234.65872725 204.99932045 233.8046875 202.9140625 C232.90425801 200.7390814 231.97074197 198.58686862 231.01171875 196.4375 C229.56392019 192.91466671 228.53675701 189.41751786 227.5703125 185.734375 C227.23773437 184.4865625 226.90515625 183.23875 226.5625 181.953125 C224.87432548 174.71374596 224.48547714 167.75970974 224.4453125 160.359375 C224.4246875 159.41707031 224.4040625 158.47476563 224.3828125 157.50390625 C224.32597052 147.22971825 227.19827721 138.1849157 234.2578125 130.54296875 C238.54796302 126.58053806 243.1410837 124.00440396 248.6953125 122.234375 C250.00435547 121.79544922 250.00435547 121.79544922 251.33984375 121.34765625 C256.60898848 120.21597948 260.21089621 120.71259821 264.78515625 123.50390625 C268.5435762 126.03832786 272.11916005 128.78901745 275.66162109 131.61523438 C277.4894212 133.0704529 279.33969716 134.48169556 281.21484375 135.875 C287.88394329 140.85274042 294.25091904 146.16512368 300.56640625 151.578125 C303.45546546 154.04810602 306.41303339 156.42439324 309.3828125 158.796875 C314.01650283 162.56174839 318.19774708 166.63456747 322.3671875 170.90234375 C324.3914662 172.9300189 326.45306917 174.81554887 328.6328125 176.671875 C335.84966012 182.86609239 342.528374 189.71883176 348.6953125 196.953125 C350.86430697 199.42713431 353.10373813 201.82337613 355.35620117 204.22119141 C361.42358985 210.6835091 367.17600561 217.29285763 372.6953125 224.234375 C373.60308371 225.35114158 374.51200102 226.46697721 375.421875 227.58203125 C402.52730774 260.91530852 425.58506061 297.31314336 445.6953125 335.234375 C446.20191406 336.18586426 446.70851563 337.13735352 447.23046875 338.11767578 C462.56414492 366.97400183 475.92754611 396.74948076 487.6953125 427.234375 C487.97987305 427.96849609 488.26443359 428.70261719 488.55761719 429.45898438 C491.27627585 436.49808907 493.88203719 443.51978593 495.93579102 450.78735352 C496.69349691 453.22852553 497.59793086 455.54246458 498.578125 457.90234375 C500.60964132 462.92616628 502.32853958 468.00158504 503.9453125 473.171875 C504.38919312 474.58351929 504.38919312 474.58351929 504.84204102 476.02368164 C505.80106778 479.09151588 506.75008386 482.16226252 507.6953125 485.234375 C508.17556885 486.79285156 508.17556885 486.79285156 508.66552734 488.3828125 C513.84150702 505.27638408 518.42269442 522.29789558 522.73388672 539.42822266 C523.65867729 543.08934126 524.59877709 546.74618738 525.54296875 550.40234375 C531.34342585 573.00897011 536.09767663 595.82349242 540.09423828 618.81591797 C540.53805317 621.34000249 540.98942696 623.86203752 541.44873047 626.38330078 C546.63477971 654.87957901 550.52600113 683.44606079 553.6953125 712.234375 C553.84613281 713.59919006 553.84613281 713.59919006 554 714.99157715 C555.43483333 728.05633248 556.65241549 741.13263773 557.6953125 754.234375 C557.7705011 755.16848206 557.8456897 756.10258911 557.92315674 757.06500244 C564.92674133 845.08906126 559.66717117 932.55131176 542.6953125 1019.234375 C542.22725276 1021.77154424 541.76245879 1024.30931792 541.30078125 1026.84765625 C538.13957774 1044.06725606 534.68583278 1061.18397015 530.6953125 1078.234375 C530.51258789 1079.01651367 530.32986328 1079.79865234 530.14160156 1080.60449219 C527.3905832 1092.25744133 524.04104672 1103.7414292 520.6953125 1115.234375 C520.2902998 1116.63539794 519.88534727 1118.03643828 519.48046875 1119.4375 C518.24040039 1123.70965809 516.97304121 1127.97334082 515.6953125 1132.234375 C515.39334961 1133.24258301 515.09138672 1134.25079102 514.78027344 1135.28955078 C511.12744683 1147.44242991 507.45301036 1159.46533292 502.6953125 1171.234375 C501.81624004 1173.60787065 500.94164067 1175.98302544 500.0703125 1178.359375 C478.98402736 1234.83576582 451.33809112 1289.8557289 413.6953125 1337.234375 C413.1688916 1337.90065918 412.6424707 1338.56694336 412.10009766 1339.25341797 C406.011312 1346.93352996 399.78918363 1354.43389152 393.109375 1361.609375 C391.21955953 1363.66431998 389.39515659 1365.7454718 387.578125 1367.86328125 C383.3723686 1372.68390771 378.8949266 1377.22083862 374.37207031 1381.74291992 C372.95611303 1383.16105784 371.54832961 1384.58734165 370.140625 1386.01367188 C363.96975903 1392.19742963 357.51687086 1397.78578232 350.6953125 1403.234375 C349.60550405 1404.15777647 348.52087374 1405.08738591 347.4453125 1406.02734375 C302.62655527 1445.05276731 246.01343016 1472.5195357 187.9453125 1484.921875 C187.080271 1485.11185059 186.21522949 1485.30182617 185.32397461 1485.49755859 C166.66618876 1489.32061627 147.69455615 1490.69518363 128.69921875 1491.33203125 C126.56725958 1491.41165473 124.43533772 1491.49228277 122.30345154 1491.57383728 C116.74174711 1491.78427534 111.17968683 1491.98277189 105.61743164 1492.17803955 C96.81216521 1492.48949682 88.00759415 1492.82050617 79.20293427 1493.14858818 C77.03582099 1493.22914142 74.86869142 1493.30925725 72.70154572 1493.38893318 C53.79691146 1494.08437159 34.90472979 1494.95731432 16.01186275 1495.91684723 C6.78343505 1496.38465988 -2.44746688 1496.78720859 -11.6796875 1497.171875 C-13.55745569 1497.25127217 -15.43522255 1497.3307009 -17.31298828 1497.41015625 C-30.04900766 1497.94592583 -42.78609726 1498.45388961 -55.5234375 1498.95703125 C-57.13835171 1499.02086732 -58.75326564 1499.08471013 -60.36817932 1499.14855957 C-61.17454047 1499.18043995 -61.98090162 1499.21232033 -62.81169796 1499.24516678 C-66.10611187 1499.37543223 -69.40052408 1499.50574065 -72.69493484 1499.63608551 C-74.3523304 1499.70164719 -76.00972735 1499.76717348 -77.6671257 1499.83266449 C-97.30595124 1500.60891982 -116.94146941 1501.40777441 -136.57000732 1502.41650391 C-150.81058891 1503.1466168 -165.05537302 1503.70387693 -179.3046875 1504.234375 C-195.7315377 1504.84609389 -212.1508937 1505.52782623 -228.56814575 1506.35836792 C-244.74138193 1507.17643641 -260.91858283 1507.87394754 -277.09887695 1508.53710938 C-281.64950844 1508.72423283 -286.19966771 1508.92047055 -290.74963379 1509.12310791 C-292.42730335 1509.19616681 -294.10512194 1509.26589484 -295.78308105 1509.33197021 C-305.79414764 1509.72785801 -315.34346504 1510.68516199 -325.1796875 1512.734375 C-327.40504022 1513.18826396 -329.6316091 1513.63623247 -331.859375 1514.078125 C-332.81312012 1514.27599609 -333.76686523 1514.47386719 -334.74951172 1514.67773438 C-343.68061707 1516.0760945 -352.65695231 1516.39645829 -361.68359375 1516.4375 C-363.2466777 1516.44808945 -363.2466777 1516.44808945 -364.84133911 1516.45889282 C-408.11831793 1516.68555396 -408.11831793 1516.68555396 -428.3046875 1513.234375 C-430.2218457 1512.91243164 -430.2218457 1512.91243164 -432.17773438 1512.58398438 C-447.58138636 1509.96491996 -462.99166564 1507.1005129 -478.03564453 1502.84228516 C-480.43370727 1502.1998087 -482.84298223 1501.67606958 -485.26953125 1501.15234375 C-497.45701241 1498.23505022 -497.45701241 1498.23505022 -500.83984375 1492.75 C-502.8356814 1488.72923517 -504.09311841 1484.54297276 -505.3046875 1480.234375 C-505.70558594 1479.02910156 -506.10648438 1477.82382813 -506.51953125 1476.58203125 C-507.53632487 1473.48099163 -508.4566572 1470.38535015 -509.3046875 1467.234375 C-509.66175781 1465.99042969 -510.01882813 1464.74648437 -510.38671875 1463.46484375 C-513.35498913 1451.38824007 -512.21426561 1437.56180287 -507.3046875 1426.234375 C-506.90378906 1425.30625 -506.50289062 1424.378125 -506.08984375 1423.421875 C-495.97796026 1402.78777072 -474.11698363 1390.04047157 -453.21875 1382.421875 C-438.34888051 1377.68052024 -422.50431272 1374.05050309 -406.9540863 1372.62976074 C-395.73685207 1371.59127092 -384.88554112 1369.50147757 -373.8894043 1367.08569336 C-370.87567379 1366.42373898 -367.85915513 1365.77605446 -364.84179688 1365.13085938 C-348.80362192 1361.67803901 -332.73264773 1358.10265647 -317.0546875 1353.234375 C-316.23734131 1352.98510254 -315.41999512 1352.73583008 -314.57788086 1352.47900391 C-312.15152394 1351.73696844 -309.72768546 1350.98729824 -307.3046875 1350.234375 C-306.5720166 1350.00717773 -305.8393457 1349.77998047 -305.08447266 1349.54589844 C-301.2165058 1348.34473242 -297.35162899 1347.13423228 -293.48999023 1345.9128418 C-291.8393333 1345.40036547 -290.18441339 1344.90159204 -288.52758789 1344.40942383 C-279.41907591 1341.68032657 -270.52108469 1338.49570162 -261.6171875 1335.171875 C-260.47425232 1334.74627289 -260.47425232 1334.74627289 -259.30822754 1334.31207275 C-213.31455965 1317.14923681 -168.8125716 1295.65041386 -129.3046875 1266.234375 C-128.59521973 1265.7074707 -127.88575195 1265.18056641 -127.15478516 1264.63769531 C-113.76482121 1254.64783954 -101.07878308 1244.03404102 -88.84912109 1232.66113281 C-87.23645928 1231.17134533 -85.61011659 1229.6977395 -83.98046875 1228.2265625 C-78.16635557 1222.95939228 -72.62821623 1217.62554135 -67.46484375 1211.703125 C-66.00192706 1210.03122021 -64.50838908 1208.3857062 -62.98828125 1206.765625 C-56.05077352 1199.37155577 -49.94233462 1191.46325125 -43.88330078 1183.34375 C-42.4301703 1181.40204766 -40.9617702 1179.47314119 -39.48828125 1177.546875 C-17.4212021 1148.43413834 -0.52208172 1115.19678554 10.90014648 1080.56079102 C11.76699049 1078.0246668 12.71554263 1075.52618716 13.6640625 1073.01953125 C15.9960126 1066.6417949 17.64867323 1060.13850277 19.2578125 1053.546875 C19.56299805 1052.30156006 19.86818359 1051.05624512 20.18261719 1049.77319336 C21.03359182 1046.26326649 21.86993666 1042.75040098 22.6953125 1039.234375 C22.88013184 1038.44869141 23.06495117 1037.66300781 23.25537109 1036.85351562 C25.35652504 1027.64932558 26.3507465 1018.29406872 27.3828125 1008.921875 C27.58052246 1007.17886108 27.58052246 1007.17886108 27.78222656 1005.40063477 C29.59572708 987.73366918 28.54614791 971.25869481 25.5703125 953.796875 C25.24616829 951.8388408 24.9223608 949.88075083 24.59887695 947.92260742 C22.09179527 932.91443535 19.19734405 918.04473696 15.6953125 903.234375 C15.33171449 901.67666896 14.96845353 900.11888421 14.60546875 898.56103516 C-4.63572918 816.21385891 -34.11103955 734.12866837 -92.078125 670.68359375 C-93.51876509 669.09888965 -94.9420282 667.49813661 -96.34375 665.87890625 C-107.04068368 653.5994674 -119.27870015 642.96009789 -132.3046875 633.234375 C-132.84883301 632.82268066 -133.39297852 632.41098633 -133.95361328 631.98681641 C-161.24062491 611.42587807 -192.55748834 596.69308461 -225.3046875 587.234375 C-225.97532227 587.0384375 -226.64595703 586.8425 -227.33691406 586.640625 C-294.37103838 567.27184867 -371.97643922 573.36171516 -437.61230469 595.33789062 C-440.76727329 596.38840248 -443.93039035 597.41253994 -447.09375 598.4375 C-449.49766017 599.22314997 -451.90130715 600.00960572 -454.3046875 600.796875 C-455.42665527 601.16079346 -456.54862305 601.52471191 -457.70458984 601.8996582 C-463.07099429 603.67663707 -468.16137172 605.58788035 -473.2421875 608.07421875 C-477.40544047 610.02076277 -479.80453547 610.79038166 -484.3046875 609.234375 C-485.35785156 608.93402344 -486.41101562 608.63367187 -487.49609375 608.32421875 C-500.29364325 603.94962187 -513.92412528 597.63717123 -520.8984375 585.44921875 C-525.20752463 576.17271174 -525.72154094 568.57586782 -522.3671875 558.921875 C-506.63789802 521.81126722 -467.87559022 495.65875621 -435.26367188 474.52636719 C-433.19580429 473.16256419 -431.16542296 471.75167215 -429.1328125 470.3359375 C-415.7774949 461.23585376 -401.4357868 455.72913099 -386.3046875 450.234375 C-384.70500824 449.63342597 -383.10594608 449.03082877 -381.5078125 448.42578125 C-370.33073318 444.2599567 -358.84254002 441.22337572 -347.3046875 438.234375 C-346.22405029 437.95231201 -346.22405029 437.95231201 -345.12158203 437.66455078 C-341.22204722 436.65088113 -337.31366444 435.68326737 -333.39550781 434.74511719 C-331.17943616 434.20377881 -328.97335302 433.62904825 -326.765625 433.0546875 C-314.66211409 430.00704087 -302.47504726 428.12519674 -290.1171875 426.484375 C-289.32697205 426.37755402 -288.53675659 426.27073303 -287.72259521 426.16067505 C-269.83424904 423.76697433 -251.96682341 423.00212899 -233.9296875 422.984375 C-233.10706421 422.98303558 -232.28444092 422.98169617 -231.43688965 422.98031616 C-206.80458591 422.98886127 -181.47327832 424.21449446 -157.3046875 429.234375 C-156.67671265 429.36455017 -156.04873779 429.49472534 -155.4017334 429.62884521 C-149.96712364 430.75975848 -144.54084707 431.92716042 -139.1171875 433.109375 C-137.97357254 433.35679947 -137.97357254 433.35679947 -136.80685425 433.60922241 C-127.33887228 435.6711192 -118.10244077 438.0907874 -108.88647461 441.09033203 C-104.28539331 442.5599433 -99.64670684 443.81414654 -94.9765625 445.046875 C-90.69119268 446.43278183 -86.60807487 448.1524608 -82.46337891 449.90966797 C-79.50593367 451.14997543 -76.53390264 452.33147329 -73.54296875 453.48828125 C-38.90799496 466.93791042 -4.84611337 483.86787469 24.63671875 506.6887207 C30.09946121 510.88820397 35.80224476 514.65669262 41.5703125 518.421875 C47.95795075 522.60956694 53.97572996 526.73849337 59.46484375 532.07421875 C61.42109276 533.96879967 63.42563644 535.73257677 65.4921875 537.50390625 C69.63062814 541.1066202 73.40540674 544.96230105 77.1328125 548.984375 C77.78822021 549.68828369 78.44362793 550.39219238 79.11889648 551.11743164 C83.36563 555.71171585 87.44675756 560.39618611 91.34375 565.29296875 C93.15687856 567.56088537 94.99309346 569.79595864 96.859375 572.01953125 C104.97945912 581.71419764 112.61687015 591.67857534 120.0234375 601.92724609 C121.58028317 604.07563855 123.1506337 606.21324221 124.7265625 608.34765625 C129.9445082 615.45488731 134.98876636 622.64156074 139.828125 630.01171875 C140.75221039 631.40938628 141.6766109 632.80684552 142.60131836 634.20410156 C143.98245856 636.29115251 145.35666171 638.38117474 146.70950317 640.48669434 C152.07909414 648.84367547 156.82564979 655.27782577 165.6953125 660.234375 C166.39084229 660.65340088 167.08637207 661.07242676 167.80297852 661.50415039 C174.66880679 665.53536155 182.17185809 669.76378799 190.34765625 669.171875 C195.79683518 666.99583017 198.20105528 661.22288944 200.6953125 656.234375 C205.51089434 601.69426249 168.13218111 535.73008628 143.63749695 488.0753479 C142.18260588 485.23257648 140.75523205 482.37633865 139.328125 479.51953125 C138.82668976 478.5160112 138.82668976 478.5160112 138.31512451 477.49221802 C135.51893668 471.89268369 132.73243247 466.28834514 129.94607544 460.68391418 C127.86880468 456.50743339 125.78921442 452.33211057 123.70858955 448.1573 C122.17824186 445.08624024 120.64941344 442.01444359 119.12402344 438.94091797 C112.10819983 424.80764818 104.93174533 410.79377516 97.30371094 396.97900391 C93.97999606 390.95844522 90.82685197 384.85700445 87.6953125 378.734375 C81.54284333 366.7977362 75.18359074 354.99112746 68.6953125 343.234375 C67.76313249 341.54087745 66.83095984 339.84737583 65.89901733 338.15374756 C44.46423925 299.20482147 22.7863629 260.40201332 0.546875 221.90625 C-1.98454844 217.52390704 -4.5104672 213.1384718 -7.03125 208.75 C-13.131083 198.13810472 -19.27396218 187.55499622 -25.52532959 177.0317688 C-26.55062937 175.30371463 -27.57285965 173.57388008 -28.59423828 171.84350586 C-31.47207798 166.97464785 -34.35954705 162.11954148 -37.37109375 157.33203125 C-45.16859039 144.75047802 -50.19199382 131.39789836 -55.13305664 117.50097656 C-55.86562687 115.45851153 -56.6170348 113.42259339 -57.39624023 111.39746094 C-60.14209814 104.22594154 -61.89264714 96.98767341 -63.4921875 89.484375 C-63.75193359 88.30488281 -64.01167969 87.12539063 -64.27929688 85.91015625 C-66.54424841 75.50425489 -67.53583634 65.76095339 -67.6171875 55.109375 C-67.64619141 53.86671875 -67.67519531 52.6240625 -67.70507812 51.34375 C-67.80219571 37.03011223 -63.78398012 23.93538474 -54.34375 12.953125 C-42.11246768 1.13106774 -16.34130504 -8.73081546 0 0 Z " fill="#FEFEFE" transform="translate(2462.3046875,850.765625)"/>
<path d="M0 0 C13.65647456 5.23529243 23.85250064 11.82044751 30.6484375 25.26171875 C43.14721297 54.43892451 33.7648232 92.13671284 22.61425781 120.24633789 C21.76510705 122.27901256 20.90722532 124.30806638 20.03979492 126.33300781 C19.02318932 128.72189386 18.0709414 131.11917252 17.15234375 133.546875 C12.12760061 146.51899334 5.13657748 158.01012404 -2.14453125 169.82421875 C-5.42501981 175.21451172 -8.56228909 180.68546516 -11.69921875 186.16015625 C-12.95156636 188.34129316 -14.20416923 190.52228353 -15.45703125 192.703125 C-16.0696582 193.76966309 -16.68228516 194.83620117 -17.31347656 195.93505859 C-20.21090866 200.9609471 -23.14354499 205.96610589 -26.07421875 210.97265625 C-37.52353058 230.56157379 -48.7201037 250.29114062 -59.78125 270.1015625 C-62.47729833 274.92709265 -65.19534087 279.73970063 -67.9230957 284.54736328 C-79.55193434 305.0457157 -90.88143818 325.70821261 -102.078125 346.4453125 C-104.03281733 350.06367749 -105.99776768 353.67601084 -107.9765625 357.28125 C-137.73741767 411.50666744 -166.88837355 466.62001214 -192.13671875 523.09765625 C-192.72808656 524.40668029 -193.32007774 525.71542284 -193.91259766 527.02392578 C-203.01037201 547.13042657 -211.47833912 567.39566566 -219.13671875 588.09765625 C-219.7874939 589.85589722 -219.7874939 589.85589722 -220.45141602 591.6496582 C-223.2307201 599.28420204 -225.66345711 606.95424104 -227.82421875 614.78515625 C-228.11876953 615.82220703 -228.41332031 616.85925781 -228.71679688 617.92773438 C-234.62185123 638.34888096 -234.62185123 638.34888096 -231.38671875 658.72265625 C-230.65251249 659.85802675 -229.90339689 660.98395538 -229.13671875 662.09765625 C-228.62109375 663.25265625 -228.10546875 664.40765625 -227.57421875 665.59765625 C-224.74909026 668.49522393 -223.98463563 668.57963718 -220.07421875 668.78515625 C-213.64906906 668.41021383 -208.71632752 666.15991746 -203.13671875 663.09765625 C-201.56083984 662.24880859 -201.56083984 662.24880859 -199.953125 661.3828125 C-192.14958072 657.01779446 -186.91797983 652.57715175 -181.9140625 645.08203125 C-181.3410994 644.2296563 -181.3410994 644.2296563 -180.75656128 643.36006165 C-179.94419797 642.15057244 -179.13425112 640.93945715 -178.3265686 639.72683716 C-176.20537103 636.54392947 -174.06374199 633.37478526 -171.92578125 630.203125 C-171.50619644 629.57953598 -171.08661163 628.95594696 -170.65431213 628.3134613 C-160.67990994 613.49409251 -150.05236476 599.23587893 -139.13671875 585.09765625 C-138.6169043 584.42041504 -138.09708984 583.74317383 -137.56152344 583.04541016 C-127.13218873 569.46310343 -115.89268334 556.54705649 -104.13671875 544.09765625 C-103.64768066 543.57461914 -103.15864258 543.05158203 -102.65478516 542.51269531 C-92.2680635 531.47286668 -80.78049871 522.1516949 -67.59375 514.62890625 C-64.60542941 512.76655065 -61.90363634 510.65035478 -59.13671875 508.47265625 C-30.47566449 486.00123341 2.53457999 469.38844952 35.86328125 455.09765625 C36.63188477 454.76749512 37.40048828 454.43733398 38.19238281 454.09716797 C56.51377607 446.30226427 75.55620153 440.82040766 94.86328125 436.09765625 C95.89614258 435.84097168 96.92900391 435.58428711 97.99316406 435.31982422 C155.80852552 421.02967902 215.17993923 419.25863306 273.86328125 429.09765625 C275.02633789 429.29262695 276.18939453 429.48759766 277.38769531 429.68847656 C290.62908663 431.94582198 303.64985101 434.48878233 316.51025391 438.39770508 C319.49713138 439.28620661 322.49917214 440.11687467 325.5 440.95703125 C352.72585369 448.72573615 379.37726047 458.10326245 402.86328125 474.09765625 C404.73504741 475.34859894 406.60746776 476.5985632 408.48046875 477.84765625 C418.54696722 484.59902471 428.41343205 491.50355738 437.86328125 499.09765625 C438.78882813 499.83113281 439.714375 500.56460937 440.66796875 501.3203125 C447.67908315 506.95105169 454.33764634 512.91856903 460.86328125 519.09765625 C461.40275391 519.60312988 461.94222656 520.10860352 462.49804688 520.62939453 C476.56649478 533.88365788 491.47437651 550.95080394 492.30078125 571.16015625 C492.19629128 580.3970692 488.61879371 587.81936966 482.05078125 594.28515625 C473.2120644 601.45817264 458.88845425 610.42920471 447.17578125 609.9453125 C443.84168443 609.09212971 440.97835446 607.99336017 437.86328125 606.53515625 C403.15297743 590.99943823 364.49162654 582.43505892 326.86328125 578.09765625 C326.10967316 578.01045319 325.35606506 577.92325012 324.57962036 577.83340454 C310.88375964 576.28615633 297.32862917 575.7321863 283.55078125 575.78515625 C282.55736725 575.78697906 281.56395325 575.78880188 280.54043579 575.79067993 C248.34573648 575.88941793 216.71798121 578.82035111 186.09863281 589.34033203 C183.84947148 590.10233492 181.59045059 590.82177433 179.32421875 591.53125 C147.76427119 601.50471047 118.42522002 618.1420567 92.86328125 639.09765625 C92.30576172 639.55366211 91.74824219 640.00966797 91.17382812 640.47949219 C76.11376287 652.89612407 61.79733286 666.62842331 49.86328125 682.09765625 C48.98945764 683.15158348 48.11157596 684.2021544 47.23046875 685.25 C33.17570508 702.10617157 21.37270443 720.86117727 10.86328125 740.09765625 C10.16090332 741.37697021 10.16090332 741.37697021 9.44433594 742.68212891 C-1.54171496 762.8329941 -11.82857414 783.87089658 -18.98828125 805.71484375 C-20.19498607 809.26928721 -21.64787571 812.65280769 -23.13671875 816.09765625 C-26.96489377 825.94969175 -30.04806188 835.97948162 -32.7890625 846.1796875 C-33.74922856 849.73572328 -34.7714998 853.2683014 -35.828125 856.796875 C-39.27614769 868.31435884 -42.35985019 879.81385879 -44.8984375 891.56640625 C-45.71048476 895.30674515 -46.61823366 899.01387718 -47.57197571 902.72058105 C-49.81359146 911.4560321 -51.58137785 920.21659411 -53.13671875 929.09765625 C-53.39273775 930.55208389 -53.64875994 932.00651096 -53.90478516 933.4609375 C-54.28891811 935.64444924 -54.67236764 937.82806243 -55.05288696 940.01220703 C-55.77893531 944.15852225 -56.56464937 948.28612589 -57.41015625 952.41015625 C-62.66943724 978.89735886 -61.73718336 1007.57020209 -55.65478516 1033.85009766 C-55.1163206 1036.18615076 -54.62023081 1038.52860727 -54.12890625 1040.875 C-47.70271408 1070.9154776 -37.57114894 1100.12189215 -23.10205078 1127.27294922 C-22.06896678 1129.22572358 -21.06848859 1131.19323319 -20.0703125 1133.1640625 C-11.80752363 1149.32884426 -1.98009184 1164.54931804 8.86328125 1179.09765625 C9.26224609 1179.63551758 9.66121094 1180.17337891 10.07226562 1180.72753906 C26.27959671 1202.48085703 45.0105519 1223.70052205 65.86328125 1241.09765625 C66.77722656 1241.88914062 67.69117188 1242.680625 68.6328125 1243.49609375 C115.09154191 1283.62087632 171.17039316 1315.19607082 229.21533203 1335.18457031 C232.43513247 1336.29484633 235.64677498 1337.42765581 238.859375 1338.55859375 C251.76270865 1343.08489513 264.67506909 1347.47104977 277.86328125 1351.09765625 C279.5065592 1351.55841982 281.14978534 1352.01936815 282.79296875 1352.48046875 C311.19852829 1360.41224452 311.19852829 1360.41224452 340.05078125 1366.421875 C342.86022302 1366.91986007 345.63696794 1367.45998001 348.42578125 1368.0546875 C357.487398 1369.9773167 366.46996325 1371.48414508 375.67578125 1372.53515625 C407.02303445 1376.25767386 445.78303663 1385.05048973 466.46484375 1411.26953125 C471.01982678 1417.41354618 474.58106664 1423.78983952 476.86328125 1431.09765625 C477.22035156 1432.14695312 477.57742188 1433.19625 477.9453125 1434.27734375 C479.05385894 1438.89078385 479.16596052 1443.12348644 479.11328125 1447.84765625 C479.10095459 1449.18642822 479.10095459 1449.18642822 479.08837891 1450.55224609 C478.92156921 1460.3904311 477.0488995 1468.88989628 474.05078125 1478.22265625 C473.81472168 1478.96338379 473.57866211 1479.70411133 473.33544922 1480.46728516 C472.57957459 1482.71002837 471.74228165 1484.90039515 470.86328125 1487.09765625 C470.57324219 1487.89163818 470.28320312 1488.68562012 469.984375 1489.50366211 C468.32700469 1493.27023714 466.95258543 1495.5128967 463.26733398 1497.49121094 C460.0354228 1498.65028394 456.81536117 1499.56269471 453.48828125 1500.41015625 C451.71892212 1500.90286011 451.71892212 1500.90286011 449.91381836 1501.40551758 C447.58875281 1502.04876384 445.25960866 1502.67748373 442.92626953 1503.29003906 C440.52357833 1503.92355592 438.14352824 1504.58976571 435.765625 1505.30859375 C423.38309101 1508.92921773 410.58076456 1511.03851721 397.86328125 1513.09765625 C396.8273584 1513.26716797 395.79143555 1513.43667969 394.72412109 1513.61132812 C377.93236602 1516.21419867 361.13026478 1516.40660102 344.17578125 1516.47265625 C343.1098877 1516.48060211 342.04399414 1516.48854797 340.94580078 1516.49673462 C322.88323775 1516.60012104 304.60023745 1515.87085702 286.9921875 1511.5078125 C275.85260088 1508.91347697 264.18224461 1509.03673656 252.80078125 1508.53515625 C250.82525838 1508.44182905 248.84973578 1508.34849138 246.87426662 1508.25403404 C227.3111412 1507.31962313 207.74100627 1506.56444646 188.16821289 1505.86474609 C171.1851593 1505.2528773 154.21252351 1504.47867384 137.23828125 1503.66015625 C113.61738566 1502.52171511 89.99359756 1501.51949618 66.36328125 1500.59765625 C42.73295862 1499.67581607 19.10920752 1498.67302344 -4.51171875 1497.53515625 C-23.55051532 1496.61824073 -42.58814212 1495.78266456 -61.63671875 1495.09765625 C-84.11050829 1494.28851138 -106.57321998 1493.29011872 -129.03491211 1492.20092773 C-130.03693523 1492.15237404 -130.03693523 1492.15237404 -131.05920124 1492.10283947 C-134.36607876 1491.9426006 -137.67295241 1491.78228461 -140.97981262 1491.62168884 C-148.89282281 1491.2412747 -156.80627014 1490.9029193 -164.72265625 1490.6015625 C-198.4948884 1489.29013446 -198.4948884 1489.29013446 -214.44335938 1485.70263672 C-217.40183505 1485.03810601 -220.36955782 1484.42977725 -223.33984375 1483.8203125 C-272.58604565 1473.4065461 -319.84378447 1451.16636631 -360.13671875 1421.09765625 C-361.00876953 1420.45086914 -361.00876953 1420.45086914 -361.8984375 1419.79101562 C-373.86431668 1410.87821546 -385.12566105 1401.15486852 -396.13671875 1391.09765625 C-397.10867188 1390.23011719 -398.080625 1389.36257813 -399.08203125 1388.46875 C-427.18327727 1363.21397584 -450.75721936 1332.79993903 -471.13671875 1301.09765625 C-471.84683105 1299.99623291 -471.84683105 1299.99623291 -472.57128906 1298.87255859 C-482.51214184 1283.36367161 -491.425725 1267.31830216 -500.13671875 1251.09765625 C-500.55260254 1250.32679687 -500.96848633 1249.5559375 -501.39697266 1248.76171875 C-513.10609871 1226.87098285 -522.40181572 1203.29707706 -531.13671875 1180.09765625 C-531.38760254 1179.43507813 -531.63848633 1178.7725 -531.89697266 1178.08984375 C-538.85762212 1159.64015448 -545.58013198 1141.11785948 -550.61621094 1122.04248047 C-551.37287612 1119.2152784 -552.19318763 1116.40748785 -553.01171875 1113.59765625 C-553.72444912 1111.09880639 -554.43330308 1108.59912567 -555.13671875 1106.09765625 C-555.38147949 1105.2277002 -555.62624023 1104.35774414 -555.87841797 1103.46142578 C-567.42387364 1062.15864504 -575.39864954 1020.16226491 -581.34936523 977.71801758 C-582.59583966 968.7588737 -582.59583966 968.7588737 -583.98046875 959.8203125 C-586.70544852 943.1910874 -588.09807741 926.38765816 -589.70214844 909.62109375 C-590.05898576 905.89356684 -590.42653543 902.16723127 -590.80078125 898.44140625 C-590.97542113 896.68100552 -591.14992001 894.92059079 -591.32421875 893.16015625 C-591.39584229 892.45576416 -591.46746582 891.75137207 -591.54125977 891.02563477 C-593.19269651 873.92734502 -593.41583992 856.82562804 -593.44921875 839.66015625 C-593.45183716 838.36086182 -593.45445557 837.06156738 -593.45715332 835.72290039 C-593.48001392 807.8312919 -591.75437796 780.14052014 -589.40881348 752.34967041 C-589.14868486 749.24067242 -588.89799721 746.13109098 -588.65136719 743.02099609 C-585.59442824 704.59502366 -581.42806496 665.81085246 -573.703125 628.01171875 C-573.14397881 625.13500799 -572.63846783 622.25149642 -572.14318848 619.3631897 C-570.33097105 608.81807366 -568.14950743 598.3667401 -565.88671875 587.91015625 C-565.69007629 586.99790283 -565.49343384 586.08564941 -565.29083252 585.14575195 C-558.60433739 554.14589462 -551.57384608 523.2981184 -541.75 493.1171875 C-540.30840567 488.67640451 -538.98289118 484.21117302 -537.69921875 479.72265625 C-535.64835747 472.60044751 -533.35518595 465.56609059 -531.01171875 458.53515625 C-530.67470947 457.52340332 -530.3377002 456.51165039 -529.99047852 455.46923828 C-528.14344882 449.96882863 -526.22553879 444.5106528 -524.13671875 439.09765625 C-523.78351563 438.17718506 -523.4303125 437.25671387 -523.06640625 436.30834961 C-516.5508788 419.3988163 -509.66793676 402.69717068 -502.43359375 386.08203125 C-501.31492008 383.50773401 -500.20677774 380.92941339 -499.10546875 378.34765625 C-495.49037836 369.90479329 -491.55846958 361.65728528 -487.36328125 353.48876953 C-486.48445885 351.77555564 -485.60995239 350.06012515 -484.73828125 348.34326172 C-476.73965035 332.59725226 -468.21854265 317.24388149 -459.13671875 302.09765625 C-458.62302734 301.23962402 -458.10933594 300.3815918 -457.58007812 299.49755859 C-452.00044474 290.20487298 -446.29159498 281.02296953 -440.13671875 272.09765625 C-439.64333008 271.37884277 -439.14994141 270.6600293 -438.64160156 269.91943359 C-415.93900251 236.91149055 -390.53466544 206.457259 -362.26171875 178.09765625 C-361.76948822 177.60274689 -361.27725769 177.10783752 -360.77011108 176.59793091 C-355.07289255 170.87717752 -349.29341246 165.3247543 -343.13671875 160.09765625 C-342.01862817 159.12473478 -340.90141069 158.15080883 -339.78515625 157.17578125 C-297.49213275 120.53758866 -297.49213275 120.53758866 -287.37109375 120.8515625 C-278.16638978 121.86536731 -268.51920934 126.67838577 -262.69921875 133.91015625 C-254.67525341 145.74210514 -254.92400366 160.94681614 -257.13671875 174.53515625 C-261.22024194 195.15221793 -269.92394302 214.34855918 -279.13671875 233.09765625 C-279.49542053 233.82776917 -279.85412231 234.55788208 -280.22369385 235.31011963 C-287.66080731 250.42476283 -295.1571557 265.5098478 -303.03125 280.40234375 C-319.5596602 311.67247217 -334.89831143 343.29237959 -348.13671875 376.09765625 C-348.44845032 376.86823364 -348.76018188 377.63881104 -349.08135986 378.43273926 C-354.76032419 392.48188919 -360.40181636 406.5513731 -365.31518555 420.89013672 C-366.96080191 425.68694684 -368.85929785 430.33697885 -370.84765625 435 C-374.49928939 443.77498508 -377.82796612 452.67625082 -380.4296875 461.8203125 C-381.18401932 464.25001112 -382.10039851 466.56020392 -383.07421875 468.91015625 C-384.66125456 472.75404147 -385.94556813 476.61314064 -387.13671875 480.59765625 C-388.26759416 484.38039067 -389.46229139 488.02988636 -391.01171875 491.66015625 C-393.45563505 497.52940406 -395.13495832 503.62214197 -396.9230957 509.71435547 C-398.22474635 514.12671659 -399.56844529 518.48044251 -401.19921875 522.78515625 C-403.66721273 529.33600448 -405.54610483 536.05799396 -407.47021484 542.78320312 C-408.11483942 545.02167967 -408.7742333 547.25526683 -409.4375 549.48828125 C-419.88632809 584.96404036 -428.99394726 621.00691793 -433.69873047 657.71777344 C-434.12627373 661.01705373 -434.58400917 664.3109825 -435.046875 667.60546875 C-439.65860106 697.02864425 -439.65860106 697.02864425 -430.609375 724.359375 C-427.68842509 728.02356916 -424.89776702 730.63569098 -420.12890625 731.43359375 C-409.52261067 731.62928186 -401.93663343 726.8558015 -394.13671875 720.09765625 C-393.32203125 719.40414062 -392.50734375 718.710625 -391.66796875 717.99609375 C-385.68609948 712.77118942 -380.26110314 707.16517888 -375.13671875 701.09765625 C-374.58113281 700.46730469 -374.02554688 699.83695313 -373.453125 699.1875 C-371.74473818 696.47537256 -371.43935035 694.13713007 -371.01171875 690.97265625 C-370.21468485 685.25358845 -370.21468485 685.25358845 -369.13671875 683.09765625 C-368.80517825 681.16799551 -368.51197138 679.23168053 -368.23828125 677.29296875 C-367.22172311 670.46536741 -365.92689263 663.72767652 -364.51171875 656.97265625 C-364.25229492 655.72967773 -363.99287109 654.48669922 -363.72558594 653.20605469 C-359.0814501 631.09565954 -353.91163324 609.10128988 -348.5958252 587.1439209 C-348.17285993 585.39656412 -347.75102033 583.64893438 -347.33044434 581.90100098 C-344.89790811 571.80904392 -342.24992803 561.82280669 -339.26391602 551.88037109 C-337.81501966 547.01807953 -336.50027817 542.12602985 -335.19921875 537.22265625 C-333.1516438 529.61596159 -330.93495419 522.09166514 -328.5144043 514.59594727 C-326.74090195 509.08157788 -325.08782031 503.54047684 -323.47509766 497.97705078 C-319.8720287 485.57175559 -315.96900443 473.2896662 -311.88671875 461.03515625 C-311.63041687 460.26293732 -311.37411499 459.49071838 -311.11004639 458.69509888 C-308.59357951 451.12642156 -306.03510513 443.60497115 -302.99560547 436.22631836 C-301.914701 433.54740818 -300.98296703 430.83218787 -300.0612793 428.09521484 C-291.46532327 402.61200635 -281.37910075 377.60816314 -270.76171875 352.91015625 C-270.39557465 352.0583075 -270.02943054 351.20645874 -269.65219116 350.32879639 C-262.29640441 333.25377168 -254.77969286 316.251105 -246.63671875 299.53515625 C-245.51502997 297.22164257 -244.39393868 294.90783911 -243.2734375 292.59375 C-242.7376709 291.48757324 -242.2019043 290.38139648 -241.64990234 289.24169922 C-239.91839324 285.64402671 -238.22172857 282.0311048 -236.53222656 278.41357422 C-232.1370201 269.01480764 -227.42842734 259.81403894 -222.51855469 250.67431641 C-221.06246946 247.95920626 -219.61916709 245.23750504 -218.17578125 242.515625 C-210.55159921 228.21267382 -202.44804545 214.23045599 -194.09033203 200.34472656 C-192.24308542 197.27444664 -190.40605735 194.19825914 -188.5703125 191.12109375 C-163.94149877 150.03472452 -135.62182316 111.23912161 -104.57373047 74.7890625 C-103.14272873 73.10473018 -101.7193484 71.41419345 -100.296875 69.72265625 C-87.82718817 54.94807564 -74.34685017 41.21437277 -60.69921875 27.53515625 C-60.04133362 26.87459229 -59.38344849 26.21402832 -58.70562744 25.53344727 C-46.12180983 12.91081612 -46.12180983 12.91081612 -39.63452148 7.42944336 C-37.95566949 6.00113046 -37.95566949 6.00113046 -36.08984375 3.6640625 C-27.89564466 -5.97727725 -11.00650934 -3.34709973 0 0 Z " fill="#FEFEFE" transform="translate(1324.13671875,850.90234375)"/>
<path d="M0 0 C12.52205624 10.732937 24.15429382 22.51046401 34.3125 35.5 C36.61487801 38.19473081 38.96002276 40.8490869 41.3125 43.5 C42.14652344 42.53320312 42.98054688 41.56640625 43.83984375 40.5703125 C46.78122958 37.16445112 49.7307654 33.76576352 52.68505859 30.37109375 C53.98664051 28.87464553 55.28489439 27.37530288 56.58203125 25.875 C67.15600612 13.86196346 78.5118472 2.14530981 91.3125 -7.5 C91.86583008 -7.92442383 92.41916016 -8.34884766 92.98925781 -8.78613281 C132.45512261 -39.00118177 180.06638961 -55.84845174 229.96679688 -49.26887512 C244.2869938 -47.29220022 258.54020245 -44.99845521 272.3125 -40.5 C272.97733398 -40.28794922 273.64216797 -40.07589844 274.32714844 -39.85742188 C290.57886536 -34.56396036 306.25245253 -26.57304163 319.3125 -15.5 C320.09633057 -14.83943604 320.09633057 -14.83943604 320.89599609 -14.16552734 C350.08702009 10.71564491 364.47384563 46.31506999 370.3125 83.5 C370.43109375 84.21397949 370.5496875 84.92795898 370.671875 85.66357422 C380.41576414 146.57738121 362.56944138 199.74815156 327.04077148 248.93383789 C321.5649736 256.39839182 315.8768068 263.62230939 309.8046875 270.609375 C307.50719174 273.27418199 305.31153788 275.99413717 303.125 278.75 C293.93178589 290.0169942 283.56194047 300.32789827 273.3125 310.625 C272.63123047 311.31094238 271.94996094 311.99688477 271.24804688 312.70361328 C267.33949033 316.59975262 263.32116639 320.30929593 259.14306641 323.91455078 C256.71491884 326.01756363 254.35940107 328.19539777 252 330.375 C246.59758543 335.2957178 241.01081141 339.92792553 235.3125 344.5 C234.19229484 345.41225289 233.07252295 346.32503803 231.953125 347.23828125 C221.98740916 355.33321606 211.71455235 362.97673637 201.3125 370.5 C200.25724121 371.26546143 200.25724121 371.26546143 199.18066406 372.04638672 C173.04322069 390.94835757 145.52924512 407.90256741 117.3125 423.5 C116.36568359 424.02561523 115.41886719 424.55123047 114.44335938 425.09277344 C93.57488328 436.65080808 72.30275007 448.03131048 50.27392578 457.2434082 C46.62054213 458.58222957 46.62054213 458.58222957 44.3125 461.5 C41.5 461.6875 41.5 461.6875 38.3125 461.5 C37.29586199 460.51691956 36.29763169 459.51465046 35.3125 458.5 C33.28123992 457.3688116 33.28123992 457.3688116 30.96484375 456.3984375 C30.06693115 455.99963379 29.16901855 455.60083008 28.24389648 455.18994141 C27.25591064 454.75601074 26.2679248 454.32208008 25.25 453.875 C0.99043955 442.97009985 -22.7469758 430.9646673 -45.6875 417.5 C-46.73921387 416.88833984 -47.79092773 416.27667969 -48.87451172 415.64648438 C-69.71375839 403.5224964 -90.51006347 391.12228138 -109.92529297 376.79101562 C-111.95023157 375.30751946 -113.99159195 373.84835278 -116.03515625 372.390625 C-125.45203684 365.66371284 -134.67099642 358.75386018 -143.6875 351.5 C-144.31865723 350.99500977 -144.94981445 350.49001953 -145.60009766 349.96972656 C-164.92073136 334.49989174 -183.15433211 318.0941671 -200.6875 300.625 C-201.57195801 299.74521484 -202.45641602 298.86542969 -203.36767578 297.95898438 C-208.34857726 292.9657797 -213.10643761 287.86047925 -217.6875 282.5 C-218.61288966 281.45162757 -219.53989109 280.40467491 -220.46875 279.359375 C-245.63162906 250.7284467 -266.17535708 218.28411362 -281.6875 183.5 C-282.06366455 182.65928955 -282.4398291 181.8185791 -282.82739258 180.95239258 C-285.27559774 175.20070675 -286.58272001 169.75006087 -287.375 163.5625 C-287.49166016 162.74587891 -287.60832031 161.92925781 -287.72851562 161.08789062 C-288.07924079 158.56148056 -288.39027399 156.03323148 -288.6875 153.5 C-288.78466309 152.71826416 -288.88182617 151.93652832 -288.98193359 151.13110352 C-291.61348901 126.95811735 -291.3579357 100.34733702 -286.6875 76.5 C-286.48882324 75.48244629 -286.29014648 74.46489258 -286.08544922 73.41650391 C-278.36312596 35.39490781 -260.40641736 -0.2336942 -227.625 -22.5 C-206.65656117 -36.27484862 -183.37104373 -43.66382554 -158.6875 -47.5 C-157.80916504 -47.64808105 -156.93083008 -47.79616211 -156.02587891 -47.94873047 C-97.57477858 -57.79123041 -44.5228688 -37.49864526 0 0 Z " fill="#1E71B6" transform="translate(1824.6875,1678.5)"/>
<path d="M0 0 C5.07565909 0.8737289 10.13130634 1.45612425 15.25683594 1.94384766 C79.38410228 8.14442394 143.54623179 32.01832412 192.12890625 75.0078125 C192.99902344 75.76707031 193.86914062 76.52632812 194.765625 77.30859375 C204.75322253 86.13593662 213.98257264 95.44519349 222.12890625 106.0078125 C222.55139648 106.5538916 222.97388672 107.0999707 223.40917969 107.66259766 C234.74722236 122.41696071 244.24586764 138.16058419 252.12890625 155.0078125 C252.42216797 155.62237305 252.71542969 156.23693359 253.01757812 156.87011719 C277.62843852 208.75024939 286.1439187 278.595994 266.59765625 333.48046875 C260.14688749 348.97260754 250.12683078 361.99797203 235.12890625 370.0078125 C231.03620426 370.9110593 228.90595005 371.28206325 224.94140625 369.8828125 C220.02695971 366.6065148 217.39503914 362.39857224 215.12890625 357.0078125 C215.04589844 353.8293457 215.04589844 353.8293457 215.42578125 350.24609375 C216.45327731 338.57960938 216.37287919 326.89934632 216.37890625 315.1953125 C216.37958099 314.01528656 216.38025574 312.83526062 216.38095093 311.61947632 C216.3654522 294.55479638 216.02079927 277.86543277 213.12890625 261.0078125 C212.87149658 259.42637451 212.87149658 259.42637451 212.60888672 257.81298828 C204.15165585 206.71438427 183.83120281 152.44345912 142.12890625 119.0078125 C141.16339844 118.22792969 140.19789063 117.44804688 139.203125 116.64453125 C132.42343757 111.2534545 125.44570185 106.41404297 117.94238281 102.06152344 C116.68752182 101.33239311 115.43713084 100.59553527 114.19042969 99.85253906 C87.53894034 84.00467213 57.53816185 73.74708678 27.12890625 68.0078125 C26.28908203 67.84410156 25.44925781 67.68039062 24.58398438 67.51171875 C-1.28861023 62.68429555 -31.10535416 62.4850295 -56.87109375 68.0078125 C-58.12116211 68.25724609 -58.12116211 68.25724609 -59.39648438 68.51171875 C-101.35329491 76.97201662 -138.82159021 98.34757545 -169.98046875 127.33984375 C-172.5101625 129.67468271 -175.08117683 131.94254003 -177.68359375 134.1953125 C-181.11131023 137.22918004 -184.14148754 140.4240524 -187.08984375 143.921875 C-188.28498709 145.32145076 -189.51533331 146.69165695 -190.77734375 148.03125 C-203.5032127 161.56435691 -214.23764958 177.16251153 -223.87109375 193.0078125 C-224.24363281 193.61915039 -224.61617188 194.23048828 -225 194.86035156 C-238.08376193 216.60800244 -248.17126983 239.8675862 -255.87109375 264.0078125 C-256.20597305 265.00907166 -256.54085236 266.01033081 -256.88587952 267.04193115 C-265.71658107 294.39896412 -263.90288249 323.54485233 -263.71453524 351.93830061 C-263.68407699 356.94610174 -263.68672684 361.95310502 -263.70825195 366.9609375 C-264.00990342 411.33634097 -264.00990342 411.33634097 -256.87109375 455.0078125 C-256.45676929 456.86614561 -256.0496137 458.72609796 -255.65112305 460.58789062 C-254.63381436 465.27533602 -253.49956916 469.92428833 -252.30859375 474.5703125 C-252.00086533 475.78654297 -252.00086533 475.78654297 -251.68692017 477.02734375 C-241.54618536 516.90686376 -227.39304775 555.26343446 -208.87109375 592.0078125 C-208.38286133 592.98540527 -207.89462891 593.96299805 -207.39160156 594.97021484 C-188.27887006 633.10118512 -162.16689546 673.57458581 -128.984375 701.21484375 C-126.07375774 703.68429536 -123.29229463 706.28527955 -120.49609375 708.8828125 C-112.42179986 716.35630947 -104.32557006 723.72083724 -95.765625 730.640625 C-93.2577228 732.69162194 -90.79033288 734.78176345 -88.33447266 736.89453125 C-80.11248317 743.9513387 -71.55500421 750.5315146 -62.87109375 757.0078125 C-62.14229004 757.55228027 -61.41348633 758.09674805 -60.66259766 758.65771484 C1.82128015 805.12362618 82.03797456 829.53772094 160.12890625 819.0078125 C181.65710019 815.70948887 208.10899137 809.63950337 225.16796875 795.29296875 C229.43589393 792.49586241 235.25178078 793.45648527 240.12890625 794.0078125 C243.37494951 795.17782809 245.38609407 796.82911401 247.25390625 799.79296875 C249.63689994 805.82492153 249.02594974 814.86963561 246.63671875 820.875 C242.91357772 826.14141193 236.6825796 828.99054453 231.12890625 832.0078125 C229.82542236 832.7184082 229.82542236 832.7184082 228.49560547 833.44335938 C221.76447595 837.08104857 214.96112179 840.56466106 208.12890625 844.0078125 C207.38801758 844.38824707 206.64712891 844.76868164 205.88378906 845.16064453 C150.09001559 873.72909811 79.74833703 884.94193967 19.20849609 866.0715332 C-2.20297835 859.09124122 -21.55894506 848.90701678 -40.99169922 837.66064453 C-43.86656468 836.01041228 -46.75738606 834.39281034 -49.65625 832.78515625 C-63.05644505 825.34274088 -76.05114487 817.40884264 -88.87109375 809.0078125 C-89.77134277 808.41822754 -90.6715918 807.82864258 -91.59912109 807.22119141 C-103.52478469 799.38701692 -115.29944455 791.35624854 -126.87109375 783.0078125 C-127.63663574 782.45625488 -128.40217773 781.90469727 -129.19091797 781.33642578 C-140.38587145 773.24547571 -151.2612664 764.85122551 -161.87109375 756.0078125 C-162.45084961 755.52715332 -163.03060547 755.04649414 -163.62792969 754.55126953 C-170.56972128 748.78898579 -177.31576949 742.85527529 -183.921875 736.7109375 C-186.12536871 734.66780895 -188.38296688 732.69881086 -190.66015625 730.73828125 C-195.28145418 726.70934522 -199.61081935 722.41508575 -203.93359375 718.0703125 C-205.07924805 716.93045898 -205.07924805 716.93045898 -206.24804688 715.76757812 C-210.99628709 711.01121432 -215.51982355 706.1288688 -219.87109375 701.0078125 C-220.42482666 700.36078369 -220.97855957 699.71375488 -221.54907227 699.04711914 C-229.98861442 689.12480568 -237.80857511 678.95596714 -244.87109375 668.0078125 C-245.46398193 667.09249756 -245.46398193 667.09249756 -246.06884766 666.15869141 C-256.96627079 649.15286771 -264.33746733 630.63365808 -271.74008179 611.91990662 C-276.42432666 600.081418 -281.21826163 588.28914912 -286.03219604 576.50286865 C-287.43725739 573.06133885 -288.84021564 569.61895954 -290.24243164 566.17626953 C-294.59726319 555.4848152 -298.95648228 544.79526171 -303.33573914 534.11378479 C-305.26706348 529.39785396 -307.19085113 524.67887234 -309.11300659 519.959198 C-310.02275763 517.73009619 -310.9356948 515.5022916 -311.8520813 513.27590942 C-318.81530547 496.35287735 -323.80600661 480.01780261 -326.80859375 461.9453125 C-326.99610703 460.83089783 -326.99610703 460.83089783 -327.18740845 459.69396973 C-336.53224431 403.96449953 -343.6203254 345.24753743 -334.87109375 289.0078125 C-334.72655762 288.07211426 -334.58202148 287.13641602 -334.43310547 286.17236328 C-331.75386426 269.62515595 -327.12456522 254.12684983 -318.80078125 239.53515625 C-316.52118121 235.48962835 -314.70724802 231.26872695 -312.87109375 227.0078125 C-285.87215285 164.95846082 -249.76731649 99.83449804 -195.54296875 57.12890625 C-193.74864159 55.70446232 -191.98778634 54.23690199 -190.26171875 52.73046875 C-155.48950944 22.42756883 -109.70679569 2.6181872 -63.87109375 -1.9921875 C-62.38802734 -2.15847656 -62.38802734 -2.15847656 -60.875 -2.328125 C-40.73934266 -4.26575653 -19.92517773 -3.4562095 0 0 Z " fill="#1E71B6" transform="translate(348.87109375,1337.9921875)"/>
<path d="M0 0 C9.61318315 8.85917662 18.95246612 17.92261765 27.06640625 28.1953125 C28.92322168 30.51360652 30.86164455 32.69283561 32.875 34.875 C64.38081756 70.00648704 88.48222887 115.13278911 105.94140625 158.5703125 C107.76768965 163.06759222 109.80806449 167.3908772 112.0625 171.6875 C147.78193702 239.91224623 132.87190221 331.2586641 119.5625 404 C119.36533386 405.11063812 119.36533386 405.11063812 119.16418457 406.24371338 C117.25231253 416.89193652 114.14742076 426.68113772 110.0625 436.6875 C109.37878041 438.384568 108.69536544 440.08175875 108.01220703 441.77905273 C106.07408259 446.57483538 104.11483396 451.36173902 102.14956665 456.14645386 C99.92779591 461.55642438 97.71431113 466.96978546 95.5 472.3828125 C95.04627518 473.49150192 94.59255035 474.60019135 94.12507629 475.74247742 C89.90747185 486.05371559 85.72435484 496.37872127 81.55307007 506.70877075 C80.37566094 509.62336388 79.19645314 512.5372237 78.0168457 515.45092773 C74.52527068 524.08017153 71.04586337 532.71362752 67.61546326 541.36740112 C53.20390473 577.72111599 36.98476565 609.2819648 10.2578125 638.28125 C8.4213622 640.29415638 6.64052679 642.33769645 4.86328125 644.40234375 C0.80875153 649.04676101 -3.50592342 653.40304533 -7.875 657.75 C-9.01485352 658.8956543 -9.01485352 658.8956543 -10.17773438 660.06445312 C-14.38633361 664.26586432 -18.68160186 668.3000321 -23.1887207 672.17944336 C-25.35861124 674.05064451 -27.45780107 675.99352353 -29.5625 677.9375 C-34.09086348 682.02830689 -38.81141694 685.80030808 -43.63232422 689.53466797 C-47.39829818 692.45677165 -51.06271551 695.46486561 -54.6875 698.5625 C-61.7637606 704.50655891 -69.27476062 709.82231247 -76.80664062 715.16943359 C-78.66586529 716.49398205 -80.51534499 717.83021216 -82.359375 719.17578125 C-107.79780759 737.63415611 -134.50188386 754.37669989 -161.9375 769.6875 C-163.68415005 770.66938444 -165.4307999 771.65126923 -167.17744446 772.63316345 C-228.46535454 807.04609621 -290.28508318 817.94662738 -358.95703125 798.796875 C-365.34036352 796.92364764 -371.65015753 794.85958606 -377.9375 792.6875 C-378.84612793 792.37586914 -379.75475586 792.06423828 -380.69091797 791.74316406 C-395.63434519 786.53706684 -409.80970082 779.78249617 -423.9375 772.6875 C-424.7197998 772.29498047 -425.50209961 771.90246094 -426.30810547 771.49804688 C-430.58163661 769.33428335 -434.7778169 767.06517686 -438.9375 764.6875 C-440.08089844 764.04425781 -441.22429688 763.40101563 -442.40234375 762.73828125 C-451.2664956 757.37341408 -451.2664956 757.37341408 -453.1875 752.4375 C-454.57181957 746.04748088 -455.7783691 737.86750182 -452.1875 732.0625 C-448.42213199 728.08794488 -445.30572757 727.3295596 -439.875 727.125 C-433.47332843 727.23157611 -430.11099375 728.94737513 -425 732.6171875 C-381.48070587 762.03711848 -319.61929639 757.41207882 -270.77148438 748.43359375 C-214.51986079 737.48702207 -168.51233798 712.42183747 -124.62548828 676.07568359 C-122.4011906 674.24644486 -120.13930063 672.4668598 -117.875 670.6875 C-107.50086772 662.40211918 -97.63982423 653.50375197 -87.92578125 644.4609375 C-85.24603337 641.96691472 -82.53677683 639.50791385 -79.8125 637.0625 C-79.01972656 636.34964844 -78.22695312 635.63679688 -77.41015625 634.90234375 C-75.65154483 633.32709466 -73.88799256 631.75735402 -72.12109375 630.19140625 C-67.35635059 625.9323093 -62.83242986 621.67800154 -58.72265625 616.78125 C-56.66066237 614.36280642 -54.48707502 612.0676851 -52.3125 609.75 C-45.67385843 602.45755282 -39.7975295 594.61057128 -33.9375 586.6875 C-33.43992187 586.02008789 -32.94234375 585.35267578 -32.4296875 584.66503906 C-17.8315834 564.98296956 -5.88269209 543.5702489 5.0625 521.6875 C5.7419165 520.34848633 5.7419165 520.34848633 6.43505859 518.98242188 C24.14231301 483.96268103 36.81364293 446.41777468 46.4375 408.4375 C46.63097015 407.6842746 46.82444031 406.93104919 47.02377319 406.15499878 C48.25574974 401.31763521 49.36436447 396.46288857 50.4145813 391.58294678 C50.86021781 389.59146727 51.3349808 387.60635362 51.83370972 385.62750244 C58.98878003 357.05873662 58.01612441 327.73674087 57.89045668 298.49986982 C57.87188211 293.49080256 57.88693896 288.48260784 57.92016602 283.47363281 C58.73385962 240.01025689 58.73385962 240.01025689 50.0625 197.6875 C49.48779968 195.87782242 49.48779968 195.87782242 48.90148926 194.03158569 C35.47256702 151.79476146 12.7224039 112.58835548 -16.9375 79.6875 C-17.48325684 79.0800293 -18.02901367 78.47255859 -18.59130859 77.84667969 C-24.13340212 71.70505409 -29.64504651 65.59751805 -36.01953125 60.30078125 C-37.38575325 59.15159655 -38.71319397 57.95563055 -40.01171875 56.73046875 C-53.10251418 44.39533893 -68.42988776 34.67915625 -83.9375 25.6875 C-84.55625 25.32317871 -85.175 24.95885742 -85.8125 24.58349609 C-113.25092892 8.5551814 -146.91019373 -1.33010407 -178.7578125 -1.515625 C-179.57066711 -1.52268463 -180.38352173 -1.52974426 -181.2210083 -1.53701782 C-198.6412263 -1.65385543 -215.77875114 -1.68935658 -232.9375 1.6875 C-233.92685547 1.87554199 -234.91621094 2.06358398 -235.93554688 2.25732422 C-277.41106031 10.35780905 -320.34352015 27.11874441 -351.54296875 56.4453125 C-353.54121686 58.316429 -355.57259164 60.07743106 -357.6875 61.8125 C-372.24409498 74.16897693 -383.11643504 92.00310457 -391.9375 108.6875 C-392.36659668 109.49638672 -392.79569336 110.30527344 -393.23779297 111.13867188 C-412.52673546 148.09514632 -422.15035481 192.1811233 -422.0703125 233.79296875 C-422.07126923 234.91584793 -422.07222595 236.03872711 -422.07321167 237.19563293 C-422.07388805 239.55791276 -422.07207184 241.92019451 -422.06787109 244.2824707 C-422.06254057 247.84786281 -422.06782167 251.4131275 -422.07421875 254.97851562 C-422.07545885 265.90729845 -422.01533414 276.73463622 -420.94433594 287.61743164 C-420.93028183 293.9292316 -424.14963888 297.80554093 -428.3125 302.1875 C-431.73552361 304.14351349 -433.97742685 304.6875 -437.9375 304.6875 C-449.34921655 301.28775944 -460.29897524 290.21963116 -466.03515625 280.12109375 C-490.88252332 233.83010852 -485.2456588 170.4682588 -470.86376953 121.72021484 C-456.58224865 74.96084415 -428.51768359 31.9893446 -389.9375 1.6875 C-388.95136719 0.89601563 -387.96523437 0.10453125 -386.94921875 -0.7109375 C-335.89232846 -41.02235524 -273.50892451 -58.67548777 -209.82666016 -65.85546875 C-204.62493803 -66.46674457 -199.43747643 -67.16519187 -194.2487793 -67.87768555 C-121.03271077 -77.49191677 -53.5114265 -48.39479608 0 0 Z " fill="#1E71B6" transform="translate(3613.9375,1404.3125)"/>
<path d="M0 0 C22.84290874 18.81381572 37.21993873 42.2856167 43.61328125 71.15234375 C43.88060059 72.35528076 43.88060059 72.35528076 44.15332031 73.58251953 C46.19168013 84.10900293 46.33063855 94.84195944 46.73828125 105.52734375 C46.77930969 106.5648175 46.82033813 107.60229126 46.86260986 108.67120361 C47.1433815 115.83067339 47.39223025 122.9907868 47.61328125 130.15234375 C47.63946533 131.00038574 47.66564941 131.84842773 47.69262695 132.72216797 C47.83854676 137.65736637 47.93191226 142.59030663 47.98828125 147.52734375 C48.01422363 148.69958496 48.04016602 149.87182617 48.06689453 151.07958984 C48.08566025 159.49288518 46.30405598 165.86570379 41.17578125 172.58984375 C37.50432815 176.26129685 35.13260616 176.93910517 30.05078125 177.65234375 C23.88649341 177.47755298 18.79524206 174.20872814 13.61328125 171.15234375 C12.79601563 170.75015625 11.97875 170.34796875 11.13671875 169.93359375 C8.40341486 168.22403641 7.19131407 166.99447714 5.61328125 164.15234375 C4.51502148 159.19257836 4.39171437 154.09520858 4.0859375 149.0390625 C1.86876065 115.71472777 -12.81737674 81.03081066 -37.75244141 58.53662109 C-59.12496253 40.43351462 -87.11340869 35.61381686 -114.33837891 36.85742188 C-120.68661172 37.47160298 -124.66254061 39.86157645 -129.38671875 44.15234375 C-130.48773394 45.09308884 -131.58933196 46.0331521 -132.69140625 46.97265625 C-136.05177212 49.90815921 -139.23626494 52.99434006 -142.38671875 56.15234375 C-143.15113281 56.90515625 -143.91554688 57.65796875 -144.703125 58.43359375 C-153.78618914 67.9610348 -159.29493659 79.45332889 -162.38671875 92.15234375 C-162.57878906 92.91546875 -162.77085937 93.67859375 -162.96875 94.46484375 C-166.37793803 116.38560417 -159.96412776 140.04810614 -147.38671875 158.15234375 C-130.96882515 179.24326209 -105.2838635 194.10776035 -79.6640625 200.87109375 C-73.82029291 202.51008088 -70.5706754 204.92987826 -67.38671875 210.15234375 C-65.81974931 213.41686341 -64.51078367 216.71097576 -63.38671875 220.15234375 C-63.09474609 221.04179688 -63.09474609 221.04179688 -62.796875 221.94921875 C-59.30398301 240.71103861 -66.33934818 258.01222801 -76.69921875 273.33984375 C-80.48725825 278.4894827 -84.66122376 283.33431743 -88.8359375 288.171875 C-93.34538914 292.62147251 -93.34538914 292.62147251 -95.38671875 298.15234375 C-93.83204594 299.49602014 -93.83204594 299.49602014 -91.82421875 300.83984375 C-74.90537341 313.23111076 -67.72412316 331.63097058 -63.91796875 351.61328125 C-62.99457154 358.30791105 -63.35801583 365.13846246 -63.38061523 371.88110352 C-63.38660903 374.11151308 -63.38600022 376.34184986 -63.38476562 378.57226562 C-63.38704251 382.33595149 -63.42652875 386.0981083 -63.484375 389.86132812 C-63.50260309 391.38858145 -63.51009118 392.91600074 -63.50683594 394.44335938 C-63.49177505 406.20089212 -65.57247073 415.43080912 -70.38671875 426.15234375 C-70.74862305 426.98008301 -71.11052734 427.80782227 -71.48339844 428.66064453 C-91.34321883 472.27869449 -126.19223027 506.06752769 -170.03559875 525.11401367 C-171.49509135 525.75857246 -172.94656934 526.42204861 -174.38395691 527.11450195 C-192.87252087 535.89265359 -213.53010432 534.09987204 -233.47369385 533.8661499 C-237.36899217 533.8309733 -241.26377765 533.83696565 -245.15919495 533.8435545 C-248.95144704 533.84636857 -252.74338551 533.82866194 -256.53555298 533.80442238 C-258.32782906 533.79432426 -260.12014055 533.78911377 -261.91244507 533.78922081 C-275.57163002 533.7673021 -287.01832436 531.88676568 -299.32421875 525.52734375 C-300.3289624 525.00986572 -300.3289624 525.00986572 -301.35400391 524.48193359 C-315.51107974 516.98386486 -326.54254052 506.84997853 -337.46679688 495.19091797 C-339.05110094 493.50870294 -340.66944259 491.87785077 -342.30859375 490.25 C-348.53881089 483.25757544 -348.36297632 475.80439536 -347.85546875 466.86328125 C-347.24458867 459.69958108 -345.77599079 453.00470647 -341.38671875 447.15234375 C-337.09302275 444.28987975 -333.42446505 444.56585985 -328.38671875 445.15234375 C-323.36262498 446.61693197 -320.17011702 449.33234592 -316.57421875 453.02734375 C-309.85173656 459.22031536 -301.04539235 460.98685009 -292.38671875 463.15234375 C-291.58266602 463.3534375 -290.77861328 463.55453125 -289.95019531 463.76171875 C-250.7960255 473.19569048 -208.46333665 471.03687844 -173.37646484 449.94384766 C-169.18635895 447.25431869 -165.2425634 444.29914931 -161.38671875 441.15234375 C-160.86529297 440.72727539 -160.34386719 440.30220703 -159.80664062 439.86425781 C-151.4490052 432.91350845 -144.74949722 424.93287449 -138.38671875 416.15234375 C-137.69320312 415.21390625 -136.9996875 414.27546875 -136.28515625 413.30859375 C-128.04207731 401.38243699 -125.25725215 386.46952603 -126.38671875 372.15234375 C-128.35988385 362.18504118 -131.98090847 354.27067446 -140.07421875 347.96484375 C-142.59793467 346.58830003 -143.94507522 346.09459581 -146.82519531 346.47119141 C-153.57109353 348.47150122 -160.01439301 350.86989752 -166.44921875 353.71484375 C-167.4451001 354.15320557 -168.44098145 354.59156738 -169.46704102 355.04321289 C-188.11329654 363.39323966 -204.95900385 373.99622102 -220.82421875 386.83984375 C-221.50387695 387.38705078 -222.18353516 387.93425781 -222.88378906 388.49804688 C-226.49332899 391.44919815 -229.62618845 394.50536978 -232.76171875 397.96484375 C-237.44250047 402.23075849 -242.67761411 402.01627687 -248.71533203 401.82763672 C-256.58472904 401.30366727 -263.20250511 399.81795964 -268.82421875 393.96484375 C-274.5229723 386.34498065 -274.94589438 378.39089771 -274.38671875 369.15234375 C-274.40992187 368.31703125 -274.433125 367.48171875 -274.45703125 366.62109375 C-274.14133406 360.9014034 -271.62153595 358.03236414 -267.54199219 354.33398438 C-264.23314841 351.50627768 -260.83073694 348.81277973 -257.38671875 346.15234375 C-256.30311586 345.29982168 -255.21976099 344.44698421 -254.13671875 343.59375 C-252.06024943 341.9807783 -249.97857261 340.38263088 -247.87890625 338.80078125 C-245.29887532 336.85491444 -242.74778676 334.87579029 -240.20703125 332.87890625 C-230.54129111 325.28356277 -220.74305148 317.92365034 -210.71826172 310.80859375 C-209.13934856 309.68698675 -207.56291819 308.56187786 -205.98876953 307.43359375 C-188.81048491 295.12266152 -171.35853974 283.57352732 -152.19995117 274.54833984 C-144.47690081 270.74429525 -138.1995777 265.4126044 -134.38671875 257.52734375 C-133.24240321 253.6652788 -132.74425931 251.14986917 -133.38671875 247.15234375 C-136.90921846 241.53542738 -141.26054257 238.78366451 -147.26171875 236.33984375 C-160.61942652 230.45994466 -172.41657754 222.79380326 -183.38671875 213.15234375 C-184.2375 212.42273437 -185.08828125 211.693125 -185.96484375 210.94140625 C-201.57500107 197.29448957 -213.67589144 180.46426693 -221.5329895 161.23960876 C-222.3169947 159.32281064 -223.13411039 157.41964292 -223.9543457 155.51806641 C-226.3874166 148.07884126 -225.90162788 140.08102562 -225.92578125 132.3359375 C-225.93798878 130.593509 -225.95047559 128.85108244 -225.96322632 127.10865784 C-225.98562719 123.46326006 -225.99524791 119.81807011 -225.99755859 116.17260742 C-226.00282164 111.54507174 -226.05405934 106.91931077 -226.11707497 102.29225063 C-226.15833953 98.69293225 -226.16720377 95.09402694 -226.16767502 91.49449348 C-226.17299382 89.79112334 -226.18956583 88.0877434 -226.21852493 86.38461113 C-226.41088512 74.03801121 -224.12239819 65.0794762 -218.38671875 54.15234375 C-217.92566238 53.22733566 -217.46460602 52.30232758 -216.98957825 51.34928894 C-215.92625138 49.22739573 -214.80303084 47.15670378 -213.63671875 45.08984375 C-213.21898193 44.34581299 -212.80124512 43.60178223 -212.37084961 42.83520508 C-194.6573185 11.98520627 -167.51850855 -15.83399364 -132.50170898 -25.56347656 C-90.31034132 -36.88904551 -34.91709287 -26.75740804 0 0 Z " fill="#1E71B6" transform="translate(3506.38671875,1530.84765625)"/>
<path d="M0 0 C14.20174215 -0.42729765 27.40283089 -0.15303264 41.03417969 4.09423828 C42.1646875 4.44486328 43.29519531 4.79548828 44.45996094 5.15673828 C57.5134318 9.74696979 69.67559785 16.95743789 80.03417969 26.09423828 C80.83984375 26.78001953 81.64550781 27.46580078 82.47558594 28.17236328 C101.36555746 44.60870783 114.97762677 64.76646541 126.03417969 87.09423828 C126.6918206 88.33716141 126.6918206 88.33716141 127.36274719 89.60519409 C131.7761283 98.78737124 131.78421451 107.24106274 131.73339844 117.20361328 C131.73932445 118.94175704 131.74657824 120.67989672 131.75508118 122.41802979 C131.76689871 126.04566856 131.7603626 129.67269144 131.7409668 133.30029297 C131.71814439 137.90413025 131.7448198 142.50611349 131.78602886 147.10976791 C131.81185597 150.6962696 131.80895912 154.28234268 131.79813576 157.86890411 C131.79666862 159.56384206 131.80410743 161.25881619 131.82138634 162.95366669 C132.06281962 191.22601896 115.94491813 215.7443153 96.74511719 235.48095703 C84.45325341 247.69798945 70.17100314 256.84018448 54.58911133 264.30615234 C48.5468331 267.21968085 42.60176872 270.19399487 39.03417969 276.09423828 C38.05614442 281.6364381 39.83432256 285.56120657 42.15917969 290.46923828 C47.42787072 297.84540573 54.67042922 301.76936133 62.65917969 305.65673828 C80.82598224 314.82650873 97.60763106 326.12669617 114.03417969 338.09423828 C114.81422363 338.66174805 115.59426758 339.22925781 116.39794922 339.81396484 C126.38851822 347.09755307 136.28471131 354.49087929 146.03417969 362.09423828 C147.1838946 362.98489513 148.33363497 363.87551912 149.48339844 364.76611328 C156.53002353 370.24423339 163.41570928 375.87774546 170.19433594 381.68408203 C172.9714376 384.10066576 172.9714376 384.10066576 175.82324219 386.12939453 C180.1417288 389.96720154 179.81393567 395.54957274 180.28808594 401.02783203 C180.6064034 408.92415887 179.59501061 416.67700499 174.49121094 423.00830078 C167.5799789 429.42926235 159.03445325 430.92315898 149.88793945 430.9855957 C142.64720702 430.66475241 138.95271364 427.59073799 134.12792969 422.35986328 C133.63808594 421.82425781 133.14824219 421.28865234 132.64355469 420.73681641 C129.68514 417.71736646 126.33591594 415.20454259 122.97167969 412.65673828 C121.89841431 411.84281616 121.89841431 411.84281616 120.8034668 411.01245117 C101.08339051 396.30569522 74.88540974 378.65741831 50.03417969 375.09423828 C43.01825042 377.90060999 38.30443403 383.45939534 35.03417969 390.09423828 C29.55698732 403.72497838 31.27347064 419.30453689 36.72167969 432.71923828 C50.25588692 460.24386197 75.41229721 480.3095913 103.94433594 490.53564453 C138.34862436 502.21506225 183.88941537 501.82109074 217.03417969 486.09423828 C219.58241554 484.19822946 221.80690799 482.19435811 224.06542969 479.96533203 C228.49356956 475.75684196 233.09250529 473.88735673 239.15917969 473.40673828 C242.92022106 473.58583549 244.86232555 474.23038767 247.47167969 476.96923828 C253.87111682 486.16049785 254.57174333 497.860969 253.48144531 508.75146484 C252.22737837 515.32025653 247.57157564 519.58374389 243.03417969 524.09423828 C241.70068292 525.50960461 240.37013019 526.92774848 239.04199219 528.34814453 C228.78225718 539.13908232 218.30106299 547.55608066 205.03417969 554.40673828 C204.43017334 554.72070557 203.82616699 555.03467285 203.20385742 555.3581543 C190.46016591 561.61524484 178.84796494 562.7317895 164.90917969 562.73095703 C163.07234291 562.74130621 161.23551005 562.75237336 159.39868164 562.76411438 C155.56271734 562.78344206 151.72711676 562.78700593 147.89111328 562.78051758 C144.00020661 562.77573271 140.11085494 562.79644598 136.22021484 562.84204102 C95.12911027 563.31752936 95.12911027 563.31752936 78.03417969 555.09423828 C76.79858845 554.56386075 75.5602376 554.03985287 74.31884766 553.52319336 C71.14818707 552.15802876 68.06122835 550.6953479 64.97167969 549.15673828 C63.38468262 548.3787085 63.38468262 548.3787085 61.765625 547.58496094 C54.42072204 543.92614058 47.58340896 540.06261911 41.03417969 535.09423828 C39.9990625 534.33884766 38.96394531 533.58345703 37.89746094 532.80517578 C10.74375102 512.73258498 -10.42943209 486.05435685 -23.96582031 455.09423828 C-24.47467773 453.96099121 -24.98353516 452.82774414 -25.5078125 451.66015625 C-29.89574666 441.36573 -30.86448984 432.19997939 -30.84082031 421.09423828 C-30.85903434 419.5681631 -30.87986338 418.04211688 -30.90332031 416.51611328 C-30.95400811 412.77245756 -30.96527911 409.02999741 -30.96243286 405.28604126 C-30.96580191 403.10614408 -30.98678906 400.9270536 -31.01245117 398.74731445 C-31.08402839 391.54383531 -31.0010423 384.51902366 -29.77832031 377.40673828 C-29.64594971 376.61203125 -29.5135791 375.81732422 -29.37719727 374.99853516 C-28.11347008 367.97672483 -25.9959211 361.56250501 -22.96582031 355.09423828 C-22.546875 354.16482422 -22.12792969 353.23541016 -21.69628906 352.27783203 C-16.67057999 342.09606409 -8.61683811 333.09931602 1.03417969 327.09423828 C-0.5185884 323.58007891 -2.63149064 320.90843716 -5.09082031 317.96923828 C-5.89648438 316.99341797 -6.70214844 316.01759766 -7.53222656 315.01220703 C-9.03078211 313.2153836 -10.53697888 311.42486179 -12.05566406 309.64501953 C-25.75672406 293.23087834 -33.6918881 274.62540544 -31.96582031 253.09423828 C-30.26473393 244.20970714 -26.31332966 237.44174762 -19.96582031 231.09423828 C-18.10229254 230.57110591 -16.23556193 230.05693439 -14.35498047 229.59887695 C6.52743192 224.50865198 23.80053595 213.96352249 40.03417969 200.09423828 C41.26007813 199.07136719 41.26007813 199.07136719 42.51074219 198.02783203 C57.76531844 184.99256704 66.51574935 164.86391643 69.03417969 145.09423828 C70.46393579 124.46956681 65.87844328 105.48845774 52.18261719 89.45751953 C51.47363281 88.67763672 50.76464844 87.89775391 50.03417969 87.09423828 C49.28394531 86.26279297 48.53371094 85.43134766 47.76074219 84.57470703 C41.12231339 77.58179902 30.43565726 66.91647113 20.41894531 65.80371094 C-11.27321442 65.32053539 -38.37145957 70.21358596 -61.96582031 93.09423828 C-62.56652344 93.62146484 -63.16722656 94.14869141 -63.78613281 94.69189453 C-84.23775709 113.28860405 -96.06132758 148.15885985 -98.19970703 175.03369141 C-98.28999268 176.93450946 -98.37731356 178.83547104 -98.46142578 180.73657227 C-98.980788 191.70491445 -98.980788 191.70491445 -102.21191406 196.26220703 C-105.01840969 198.64831219 -107.70222215 200.39751351 -110.96582031 202.09423828 C-111.77277344 202.55830078 -112.57972656 203.02236328 -113.41113281 203.50048828 C-118.38129816 206.06350038 -122.42092711 206.7305375 -127.96582031 206.09423828 C-133.77838013 204.23421914 -136.97705366 200.23455683 -139.96582031 195.09423828 C-142.71447422 189.18834677 -142.26557637 183.03495037 -142.21582031 176.65673828 C-142.20905273 175.38137207 -142.20228516 174.10600586 -142.1953125 172.79199219 C-142.09709731 161.20776906 -141.75212831 149.62584525 -141.32702637 138.04953003 C-141.25400301 136.02685924 -141.18589301 134.00400391 -141.12316895 131.98098755 C-139.89251025 93.49889825 -128.74016651 60.64951857 -100.40332031 33.59423828 C-72.76406405 9.40988905 -35.73254404 1.13539364 0 0 Z " fill="#1E71B6" transform="translate(344.9658203125,1501.90576171875)"/>
</svg>
